<svg width="90" height="90" viewBox="0 0 90 90" fill="none" xmlns="http://www.w3.org/2000/svg">
<g clip-path="url(#clip0_1_136)">
<path d="M45.5 45C45.5 41.9058 46.7379 38.9384 48.9415 36.7504C51.145 34.5625 54.1337 33.3333 57.25 33.3333C60.3663 33.3333 63.355 34.5625 65.5585 36.7504C67.7621 38.9384 69 41.9058 69 45C69 48.0942 67.7621 51.0617 65.5585 53.2496C63.355 55.4375 60.3663 56.6667 57.25 56.6667C54.1337 56.6667 51.145 55.4375 48.9415 53.2496C46.7379 51.0617 45.5 48.0942 45.5 45V45Z" fill="#1ABCFE"/>
<path d="M22 68.3333C22 65.2391 23.2379 62.2717 25.4415 60.0837C27.645 57.8958 30.6337 56.6667 33.75 56.6667H45.5V68.3333C45.5 71.4275 44.2621 74.395 42.0585 76.5829C39.855 78.7708 36.8663 80 33.75 80C30.6337 80 27.645 78.7708 25.4415 76.5829C23.2379 74.395 22 71.4275 22 68.3333V68.3333Z" fill="#0ACF83"/>
<path d="M45.5 10V33.3333H57.25C60.3663 33.3333 63.355 32.1042 65.5585 29.9162C67.7621 27.7283 69 24.7609 69 21.6667C69 18.5725 67.7621 15.605 65.5585 13.4171C63.355 11.2292 60.3663 10 57.25 10H45.5Z" fill="#FF7262"/>
<path d="M22 21.6667C22 24.7609 23.2379 27.7283 25.4415 29.9162C27.645 32.1042 30.6337 33.3333 33.75 33.3333H45.5V10H33.75C30.6337 10 27.645 11.2292 25.4415 13.4171C23.2379 15.605 22 18.5725 22 21.6667V21.6667Z" fill="#F24E1E"/>
<path d="M22 45C22 48.0942 23.2379 51.0617 25.4415 53.2496C27.645 55.4375 30.6337 56.6667 33.75 56.6667H45.5V33.3333H33.75C30.6337 33.3333 27.645 34.5625 25.4415 36.7504C23.2379 38.9384 22 41.9058 22 45V45Z" fill="#A259FF"/>
</g>
<defs>
<clipPath id="clip0_1_136">
<rect width="47" height="70" fill="white" transform="translate(22 10)"/>
</clipPath>
</defs>
</svg>
