<svg xmlns="http://www.w3.org/2000/svg" xmlns:xlink="http://www.w3.org/1999/xlink" width="1920" zoomAndPan="magnify" viewBox="0 0 1440 809.999993" height="1080" preserveAspectRatio="xMidYMid meet" version="1.0"><defs><filter x="0%" y="0%" width="100%" height="100%" id="bf58a2cf86"><feColorMatrix values="0 0 0 0 1 0 0 0 0 1 0 0 0 0 1 0 0 0 1 0" color-interpolation-filters="sRGB"/></filter><mask id="daab5ff100"><g filter="url(#bf58a2cf86)"><rect x="-144" width="1728" fill="#000000" y="-80.999999" height="971.999992" fill-opacity="0.12"/></g></mask><clipPath id="46be1e27c8"><path d="M 0 1 L 1439.996094 1 L 1439.996094 810 L 0 810 Z M 0 1 " clip-rule="nonzero"/></clipPath><clipPath id="8eca762eab"><rect x="0" width="1440" y="0" height="810"/></clipPath><clipPath id="7ad234c0ca"><path d="M 0 764.460938 L 2 764.460938 L 2 810 L 0 810 Z M 0 764.460938 " clip-rule="nonzero"/></clipPath><clipPath id="c62f767150"><path d="M 0 789 L 26.765625 789 L 26.765625 791 L 0 791 Z M 0 789 " clip-rule="nonzero"/></clipPath></defs><g mask="url(#daab5ff100)"><g transform="matrix(1, 0, 0, 1, 0, 0.000000000000039746)"><g clip-path="url(#8eca762eab)"><g clip-path="url(#46be1e27c8)"><path fill="#ffffff" d="M 66.957031 1.113281 L 64.039062 1.113281 L 64.039062 65.105469 L -0.00390625 65.105469 L -0.00390625 68.023438 L 63.992188 68.023438 L 63.992188 130.546875 L -0.00390625 130.546875 L -0.00390625 133.464844 L 63.992188 133.464844 L 63.992188 196 L -0.00390625 196 L -0.00390625 198.917969 L 63.992188 198.917969 L 63.992188 261.445312 L -0.00390625 261.445312 L -0.00390625 264.359375 L 63.992188 264.359375 L 63.992188 326.910156 L -0.00390625 326.910156 L -0.00390625 329.824219 L 63.992188 329.824219 L 63.992188 392.351562 L -0.00390625 392.351562 L -0.00390625 395.269531 L 63.992188 395.269531 L 63.992188 457.792969 L -0.00390625 457.792969 L -0.00390625 460.710938 L 63.992188 460.710938 L 63.992188 523.257812 L -0.00390625 523.257812 L -0.00390625 526.175781 L 63.992188 526.175781 L 63.992188 588.699219 L -0.00390625 588.699219 L -0.00390625 591.617188 L 63.992188 591.617188 L 63.992188 654.1875 L -0.00390625 654.1875 L -0.00390625 657.105469 L 63.992188 657.105469 L 63.992188 719.652344 L -0.00390625 719.652344 L -0.00390625 722.570312 L 63.992188 722.570312 L 63.992188 785.09375 L -0.00390625 785.09375 L -0.00390625 788.011719 L 63.992188 788.011719 L 63.992188 850.546875 L -0.00390625 850.546875 L -0.00390625 853.464844 L 63.992188 853.464844 L 63.992188 915.988281 L -0.00390625 915.988281 L -0.00390625 918.90625 L 63.992188 918.90625 L 63.992188 982.902344 L 66.910156 982.902344 L 66.910156 918.90625 L 129.527344 918.90625 L 129.527344 982.902344 L 132.445312 982.902344 L 132.445312 918.90625 L 194.875 918.90625 L 194.875 982.902344 L 197.792969 982.902344 L 197.792969 918.90625 L 260.328125 918.90625 L 260.328125 982.902344 L 263.246094 982.902344 L 263.246094 918.90625 L 325.839844 918.90625 L 325.839844 982.902344 L 328.757812 982.902344 L 328.757812 918.90625 L 391.292969 918.90625 L 391.292969 982.902344 L 394.210938 982.902344 L 394.210938 918.90625 L 456.734375 918.90625 L 456.734375 982.902344 L 459.652344 982.902344 L 459.652344 918.90625 L 522.175781 918.90625 L 522.175781 982.902344 L 525.117188 982.902344 L 525.117188 918.90625 L 587.664062 918.90625 L 587.664062 982.902344 L 590.582031 982.902344 L 590.582031 918.90625 L 653.085938 918.90625 L 653.085938 982.902344 L 656 982.902344 L 656 918.90625 L 718.539062 918.90625 L 718.539062 982.902344 L 721.457031 982.902344 L 721.457031 918.90625 L 783.992188 918.90625 L 783.992188 982.902344 L 786.910156 982.902344 L 786.910156 918.90625 L 849.433594 918.90625 L 849.433594 982.902344 L 852.351562 982.902344 L 852.351562 918.90625 L 914.875 918.90625 L 914.875 982.902344 L 917.792969 982.902344 L 917.792969 918.90625 L 980.339844 918.90625 L 980.339844 982.902344 L 983.257812 982.902344 L 983.257812 918.90625 L 1045.792969 918.90625 L 1045.792969 982.902344 L 1048.710938 982.902344 L 1048.710938 918.90625 L 1111.234375 918.90625 L 1111.234375 982.902344 L 1114.152344 982.902344 L 1114.152344 918.90625 L 1176.6875 918.90625 L 1176.6875 982.902344 L 1179.605469 982.902344 L 1179.605469 918.90625 L 1242.140625 918.90625 L 1242.140625 982.902344 L 1245.058594 982.902344 L 1245.058594 918.90625 L 1307.585938 918.90625 L 1307.585938 982.902344 L 1310.464844 982.902344 L 1310.464844 918.90625 L 1373.039062 918.90625 L 1373.039062 982.902344 L 1375.953125 982.902344 L 1375.953125 918.90625 L 1439.996094 918.90625 L 1439.996094 915.988281 L 1375.953125 915.988281 L 1375.953125 853.417969 L 1439.996094 853.417969 L 1439.996094 850.5 L 1375.953125 850.5 L 1375.953125 787.964844 L 1439.996094 787.964844 L 1439.996094 785.046875 L 1375.953125 785.046875 L 1375.953125 722.523438 L 1439.996094 722.523438 L 1439.996094 719.605469 L 1375.953125 719.605469 L 1375.953125 657.058594 L 1439.996094 657.058594 L 1439.996094 654.1875 L 1375.953125 654.1875 L 1375.953125 591.617188 L 1439.996094 591.617188 L 1439.996094 588.699219 L 1375.953125 588.699219 L 1375.953125 526.175781 L 1439.996094 526.175781 L 1439.996094 523.257812 L 1375.953125 523.257812 L 1375.953125 460.710938 L 1439.996094 460.710938 L 1439.996094 457.792969 L 1375.953125 457.792969 L 1375.953125 395.269531 L 1439.996094 395.269531 L 1439.996094 392.351562 L 1375.953125 392.351562 L 1375.953125 329.777344 L 1439.996094 329.777344 L 1439.996094 326.863281 L 1375.953125 326.863281 L 1375.953125 264.3125 L 1439.996094 264.3125 L 1439.996094 261.398438 L 1375.953125 261.398438 L 1375.953125 198.917969 L 1439.996094 198.917969 L 1439.996094 196 L 1375.953125 196 L 1375.953125 133.464844 L 1439.996094 133.464844 L 1439.996094 130.546875 L 1375.953125 130.546875 L 1375.953125 68.023438 L 1439.996094 68.023438 L 1439.996094 65.105469 L 1375.953125 65.105469 L 1375.953125 1.113281 L 1373.039062 1.113281 L 1373.039062 65.105469 L 1310.464844 65.105469 L 1310.464844 1.113281 L 1307.550781 1.113281 L 1307.550781 65.105469 L 1245.023438 65.105469 L 1245.023438 1.113281 L 1242.105469 1.113281 L 1242.105469 65.105469 L 1179.570312 65.105469 L 1179.570312 1.113281 L 1176.652344 1.113281 L 1176.652344 65.105469 L 1114.117188 65.105469 L 1114.117188 1.113281 L 1111.199219 1.113281 L 1111.199219 65.105469 L 1048.675781 65.105469 L 1048.675781 1.113281 L 1045.757812 1.113281 L 1045.757812 65.105469 L 983.257812 65.105469 L 983.257812 1.113281 L 980.339844 1.113281 L 980.339844 65.105469 L 917.804688 65.105469 L 917.804688 1.113281 L 914.886719 1.113281 L 914.886719 65.105469 L 852.351562 65.105469 L 852.351562 1.113281 L 849.433594 1.113281 L 849.433594 65.105469 L 786.910156 65.105469 L 786.910156 1.113281 L 783.992188 1.113281 L 783.992188 65.105469 L 721.457031 65.105469 L 721.457031 1.113281 L 718.539062 1.113281 L 718.539062 65.105469 L 656 65.105469 L 656 1.113281 L 653.085938 1.113281 L 653.085938 65.105469 L 590.558594 65.105469 L 590.558594 1.113281 L 587.640625 1.113281 L 587.640625 65.105469 L 525.117188 65.105469 L 525.117188 1.113281 L 522.199219 1.113281 L 522.199219 65.105469 L 459.652344 65.105469 L 459.652344 1.113281 L 456.734375 1.113281 L 456.734375 65.105469 L 394.210938 65.105469 L 394.210938 1.113281 L 391.292969 1.113281 L 391.292969 65.105469 L 328.757812 65.105469 L 328.757812 1.113281 L 325.839844 1.113281 L 325.839844 65.105469 L 263.304688 65.105469 L 263.304688 1.113281 L 260.386719 1.113281 L 260.386719 65.105469 L 197.851562 65.105469 L 197.851562 1.113281 L 194.875 1.113281 L 194.875 65.105469 L 132.351562 65.105469 L 132.351562 1.113281 L 129.433594 1.113281 L 129.433594 65.105469 L 66.898438 65.105469 Z M 66.957031 133.464844 L 129.527344 133.464844 L 129.527344 196 L 66.992188 196 Z M 194.933594 133.464844 L 194.933594 196 L 132.410156 196 L 132.410156 133.464844 Z M 260.386719 133.464844 L 260.386719 196 L 197.851562 196 L 197.851562 133.464844 Z M 325.839844 133.464844 L 325.839844 196 L 263.304688 196 L 263.304688 133.464844 Z M 391.292969 133.464844 L 391.292969 196 L 328.757812 196 L 328.757812 133.464844 Z M 456.734375 133.464844 L 456.734375 196 L 394.210938 196 L 394.210938 133.464844 Z M 522.175781 133.464844 L 522.175781 196 L 459.652344 196 L 459.652344 133.464844 Z M 587.644531 133.464844 L 587.644531 196 L 525.117188 196 L 525.117188 133.464844 Z M 653.085938 133.464844 L 653.085938 196 L 590.558594 196 L 590.558594 133.464844 Z M 718.539062 133.464844 L 718.539062 196 L 656 196 L 656 133.464844 Z M 783.992188 133.464844 L 783.992188 196 L 721.457031 196 L 721.457031 133.464844 Z M 849.433594 133.464844 L 849.433594 196 L 786.910156 196 L 786.910156 133.464844 Z M 914.886719 133.464844 L 914.886719 196 L 852.351562 196 L 852.351562 133.464844 Z M 980.339844 133.464844 L 980.339844 196 L 917.804688 196 L 917.804688 133.464844 Z M 1045.792969 133.464844 L 1045.792969 196 L 983.257812 196 L 983.257812 133.464844 Z M 1111.234375 133.464844 L 1111.234375 196 L 1048.710938 196 L 1048.710938 133.464844 Z M 1176.6875 133.464844 L 1176.6875 196 L 1114.152344 196 L 1114.152344 133.464844 Z M 1242.140625 133.464844 L 1242.140625 196 L 1179.605469 196 L 1179.605469 133.464844 Z M 1307.585938 133.464844 L 1307.585938 196 L 1245.058594 196 L 1245.058594 133.464844 Z M 1245.058594 850.5 L 1245.058594 787.964844 L 1307.585938 787.964844 L 1307.585938 850.5 Z M 1179.605469 850.5 L 1179.605469 787.964844 L 1242.140625 787.964844 L 1242.140625 850.5 Z M 1114.152344 850.5 L 1114.152344 787.964844 L 1176.6875 787.964844 L 1176.6875 850.5 Z M 1048.710938 850.5 L 1048.710938 787.964844 L 1111.234375 787.964844 L 1111.234375 850.5 Z M 983.257812 850.5 L 983.257812 787.964844 L 1045.792969 787.964844 L 1045.792969 850.5 Z M 917.804688 850.5 L 917.804688 787.964844 L 980.339844 787.964844 L 980.339844 850.5 Z M 852.351562 850.5 L 852.351562 787.964844 L 914.875 787.964844 L 914.875 850.5 Z M 786.910156 850.5 L 786.910156 787.964844 L 849.433594 787.964844 L 849.433594 850.5 Z M 721.457031 850.5 L 721.457031 787.964844 L 783.992188 787.964844 L 783.992188 850.5 Z M 656 850.5 L 656 787.964844 L 718.539062 787.964844 L 718.539062 850.5 Z M 590.558594 850.5 L 590.558594 787.964844 L 653.085938 787.964844 L 653.085938 850.5 Z M 525.09375 850.5 L 525.09375 787.964844 L 587.644531 787.964844 L 587.644531 850.5 Z M 459.652344 850.5 L 459.652344 787.964844 L 522.175781 787.964844 L 522.175781 850.5 Z M 394.210938 850.5 L 394.210938 787.964844 L 456.734375 787.964844 L 456.734375 850.5 Z M 328.757812 850.5 L 328.757812 787.964844 L 391.292969 787.964844 L 391.292969 850.5 Z M 263.304688 850.5 L 263.304688 787.964844 L 325.839844 787.964844 L 325.839844 850.5 Z M 197.851562 850.5 L 197.851562 787.964844 L 260.386719 787.964844 L 260.386719 850.5 Z M 132.410156 850.5 L 132.410156 787.964844 L 194.875 787.964844 L 194.875 850.5 Z M 194.875 198.917969 L 194.875 261.445312 L 132.351562 261.445312 L 132.351562 198.917969 Z M 260.328125 198.917969 L 260.328125 261.445312 L 197.792969 261.445312 L 197.792969 198.917969 Z M 325.78125 198.917969 L 325.78125 261.445312 L 263.246094 261.445312 L 263.246094 198.917969 Z M 391.234375 198.917969 L 391.234375 261.445312 L 328.699219 261.445312 L 328.699219 198.917969 Z M 456.675781 198.917969 L 456.675781 261.445312 L 394.152344 261.445312 L 394.152344 198.917969 Z M 522.117188 198.917969 L 522.117188 261.445312 L 459.652344 261.445312 L 459.652344 198.917969 Z M 587.585938 198.917969 L 587.585938 261.445312 L 525.117188 261.445312 L 525.117188 198.917969 Z M 653.027344 198.917969 L 653.027344 261.445312 L 590.5 261.445312 L 590.5 198.917969 Z M 718.480469 198.917969 L 718.480469 261.445312 L 655.945312 261.445312 L 655.945312 198.917969 Z M 783.933594 198.917969 L 783.933594 261.445312 L 721.398438 261.445312 L 721.398438 198.917969 Z M 849.375 198.917969 L 849.375 261.445312 L 786.851562 261.445312 L 786.851562 198.917969 Z M 914.828125 198.917969 L 914.828125 261.445312 L 852.292969 261.445312 L 852.292969 198.917969 Z M 980.28125 198.917969 L 980.28125 261.445312 L 917.746094 261.445312 L 917.746094 198.917969 Z M 1045.734375 198.917969 L 1045.734375 261.445312 L 983.257812 261.445312 L 983.257812 198.917969 Z M 1111.175781 198.917969 L 1111.175781 261.445312 L 1048.652344 261.445312 L 1048.652344 198.917969 Z M 1176.628906 198.917969 L 1176.628906 261.445312 L 1114.09375 261.445312 L 1114.09375 198.917969 Z M 1242.085938 198.917969 L 1242.085938 261.445312 L 1179.546875 261.445312 L 1179.546875 198.917969 Z M 1179.546875 785.046875 L 1179.546875 722.523438 L 1242.140625 722.523438 L 1242.140625 785.046875 Z M 1114.09375 785.046875 L 1114.09375 722.523438 L 1176.6875 722.523438 L 1176.6875 785.046875 Z M 1048.652344 785.046875 L 1048.652344 722.523438 L 1111.234375 722.523438 L 1111.234375 785.046875 Z M 983.199219 785.046875 L 983.199219 722.523438 L 1045.792969 722.523438 L 1045.792969 785.046875 Z M 917.746094 785.046875 L 917.746094 722.523438 L 980.339844 722.523438 L 980.339844 785.046875 Z M 852.292969 785.046875 L 852.292969 722.523438 L 914.875 722.523438 L 914.875 785.046875 Z M 786.851562 785.046875 L 786.851562 722.523438 L 849.433594 722.523438 L 849.433594 785.046875 Z M 721.398438 785.046875 L 721.398438 722.523438 L 783.992188 722.523438 L 783.992188 785.046875 Z M 655.945312 785.046875 L 655.945312 722.523438 L 718.539062 722.523438 L 718.539062 785.046875 Z M 590.5 785.046875 L 590.5 722.523438 L 653.085938 722.523438 L 653.085938 785.046875 Z M 525.035156 785.046875 L 525.035156 722.523438 L 587.585938 722.523438 L 587.585938 785.046875 Z M 459.59375 785.046875 L 459.59375 722.523438 L 522.175781 722.523438 L 522.175781 785.046875 Z M 394.152344 785.046875 L 394.152344 722.523438 L 456.734375 722.523438 L 456.734375 785.046875 Z M 328.699219 785.046875 L 328.699219 722.523438 L 391.292969 722.523438 L 391.292969 785.046875 Z M 263.246094 785.046875 L 263.246094 722.523438 L 325.839844 722.523438 L 325.839844 785.046875 Z M 197.792969 785.046875 L 197.792969 722.523438 L 260.328125 722.523438 L 260.328125 785.046875 Z M 260.328125 264.359375 L 260.328125 326.910156 L 197.792969 326.910156 L 197.792969 264.359375 Z M 325.78125 264.359375 L 325.78125 326.910156 L 263.246094 326.910156 L 263.246094 264.359375 Z M 391.234375 264.359375 L 391.234375 326.910156 L 328.699219 326.910156 L 328.699219 264.359375 Z M 456.675781 264.359375 L 456.675781 326.910156 L 394.152344 326.910156 L 394.152344 264.359375 Z M 522.117188 264.359375 L 522.117188 326.910156 L 459.652344 326.910156 L 459.652344 264.359375 Z M 587.585938 264.359375 L 587.585938 326.910156 L 525.117188 326.910156 L 525.117188 264.359375 Z M 653.027344 264.359375 L 653.027344 326.910156 L 590.5 326.910156 L 590.5 264.359375 Z M 718.480469 264.359375 L 718.480469 326.910156 L 655.945312 326.910156 L 655.945312 264.359375 Z M 783.933594 264.359375 L 783.933594 326.910156 L 721.398438 326.910156 L 721.398438 264.359375 Z M 849.375 264.359375 L 849.375 326.910156 L 786.851562 326.910156 L 786.851562 264.359375 Z M 914.828125 264.359375 L 914.828125 326.910156 L 852.292969 326.910156 L 852.292969 264.359375 Z M 980.28125 264.359375 L 980.28125 326.910156 L 917.746094 326.910156 L 917.746094 264.359375 Z M 1045.734375 264.359375 L 1045.734375 326.910156 L 983.257812 326.910156 L 983.257812 264.359375 Z M 1111.175781 264.359375 L 1111.175781 326.910156 L 1048.652344 326.910156 L 1048.652344 264.359375 Z M 1176.628906 264.359375 L 1176.628906 326.910156 L 1114.09375 326.910156 L 1114.09375 264.359375 Z M 1114.09375 719.605469 L 1114.09375 657.058594 L 1176.6875 657.058594 L 1176.6875 719.605469 Z M 1048.652344 719.605469 L 1048.652344 657.058594 L 1111.234375 657.058594 L 1111.234375 719.605469 Z M 983.199219 719.605469 L 983.199219 657.058594 L 1045.792969 657.058594 L 1045.792969 719.605469 Z M 917.746094 719.605469 L 917.746094 657.058594 L 980.339844 657.058594 L 980.339844 719.605469 Z M 852.292969 719.605469 L 852.292969 657.058594 L 914.875 657.058594 L 914.875 719.605469 Z M 786.851562 719.605469 L 786.851562 657.058594 L 849.433594 657.058594 L 849.433594 719.605469 Z M 721.398438 719.605469 L 721.398438 657.058594 L 783.992188 657.058594 L 783.992188 719.605469 Z M 655.945312 719.605469 L 655.945312 657.058594 L 718.539062 657.058594 L 718.539062 719.605469 Z M 590.5 719.605469 L 590.5 657.058594 L 653.085938 657.058594 L 653.085938 719.605469 Z M 525.035156 719.605469 L 525.035156 657.058594 L 587.585938 657.058594 L 587.585938 719.605469 Z M 459.59375 719.605469 L 459.59375 657.058594 L 522.175781 657.058594 L 522.175781 719.605469 Z M 394.152344 719.605469 L 394.152344 657.058594 L 456.734375 657.058594 L 456.734375 719.605469 Z M 328.699219 719.605469 L 328.699219 657.058594 L 391.292969 657.058594 L 391.292969 719.605469 Z M 263.246094 719.605469 L 263.246094 657.058594 L 325.839844 657.058594 L 325.839844 719.605469 Z M 325.839844 329.777344 L 325.839844 392.304688 L 263.304688 392.304688 L 263.304688 329.777344 Z M 391.292969 329.777344 L 391.292969 392.304688 L 328.757812 392.304688 L 328.757812 329.777344 Z M 456.734375 329.777344 L 456.734375 392.304688 L 394.210938 392.304688 L 394.210938 329.777344 Z M 522.175781 329.777344 L 522.175781 392.304688 L 459.652344 392.304688 L 459.652344 329.777344 Z M 587.640625 329.777344 L 587.640625 392.304688 L 525.117188 392.304688 L 525.117188 329.777344 Z M 653.085938 329.777344 L 653.085938 392.304688 L 590.558594 392.304688 L 590.558594 329.777344 Z M 718.539062 329.777344 L 718.539062 392.304688 L 656 392.304688 L 656 329.777344 Z M 783.992188 329.777344 L 783.992188 392.304688 L 721.457031 392.304688 L 721.457031 329.777344 Z M 849.433594 329.777344 L 849.433594 392.304688 L 786.910156 392.304688 L 786.910156 329.777344 Z M 914.886719 329.777344 L 914.886719 392.304688 L 852.351562 392.304688 L 852.351562 329.777344 Z M 980.339844 329.777344 L 980.339844 392.304688 L 917.804688 392.304688 L 917.804688 329.777344 Z M 1045.792969 329.777344 L 1045.792969 392.304688 L 983.257812 392.304688 L 983.257812 329.777344 Z M 1111.234375 329.777344 L 1111.234375 392.304688 L 1048.710938 392.304688 L 1048.710938 329.777344 Z M 1048.710938 654.1875 L 1048.710938 591.617188 L 1111.234375 591.617188 L 1111.234375 654.1875 Z M 983.257812 654.1875 L 983.257812 591.617188 L 1045.792969 591.617188 L 1045.792969 654.1875 Z M 917.804688 654.1875 L 917.804688 591.617188 L 980.339844 591.617188 L 980.339844 654.1875 Z M 852.351562 654.1875 L 852.351562 591.617188 L 914.875 591.617188 L 914.875 654.1875 Z M 786.910156 654.1875 L 786.910156 591.617188 L 849.433594 591.617188 L 849.433594 654.1875 Z M 721.453125 654.1875 L 721.453125 591.617188 L 783.992188 591.617188 L 783.992188 654.1875 Z M 656 654.1875 L 656 591.617188 L 718.539062 591.617188 L 718.539062 654.1875 Z M 590.558594 654.1875 L 590.558594 591.617188 L 653.085938 591.617188 L 653.085938 654.1875 Z M 525.09375 654.1875 L 525.09375 591.617188 L 587.640625 591.617188 L 587.640625 654.1875 Z M 459.652344 654.1875 L 459.652344 591.617188 L 522.175781 591.617188 L 522.175781 654.1875 Z M 394.210938 654.1875 L 394.210938 591.617188 L 456.734375 591.617188 L 456.734375 654.1875 Z M 328.757812 654.1875 L 328.757812 591.617188 L 391.292969 591.617188 L 391.292969 654.1875 Z M 391.292969 395.269531 L 391.292969 457.792969 L 328.757812 457.792969 L 328.757812 395.269531 Z M 456.734375 395.269531 L 456.734375 457.792969 L 394.210938 457.792969 L 394.210938 395.269531 Z M 522.175781 395.269531 L 522.175781 457.792969 L 459.652344 457.792969 L 459.652344 395.269531 Z M 587.640625 395.269531 L 587.640625 457.792969 L 525.117188 457.792969 L 525.117188 395.269531 Z M 653.085938 395.269531 L 653.085938 457.792969 L 590.558594 457.792969 L 590.558594 395.269531 Z M 718.539062 395.269531 L 718.539062 457.792969 L 656 457.792969 L 656 395.269531 Z M 783.992188 395.269531 L 783.992188 457.792969 L 721.457031 457.792969 L 721.457031 395.269531 Z M 849.433594 395.269531 L 849.433594 457.792969 L 786.910156 457.792969 L 786.910156 395.269531 Z M 914.886719 395.269531 L 914.886719 457.792969 L 852.351562 457.792969 L 852.351562 395.269531 Z M 980.339844 395.269531 L 980.339844 457.792969 L 917.804688 457.792969 L 917.804688 395.269531 Z M 1045.792969 395.269531 L 1045.792969 457.792969 L 983.257812 457.792969 L 983.257812 395.269531 Z M 983.257812 588.699219 L 983.257812 526.175781 L 1045.792969 526.175781 L 1045.792969 588.699219 Z M 917.804688 588.699219 L 917.804688 526.175781 L 980.339844 526.175781 L 980.339844 588.699219 Z M 852.351562 588.699219 L 852.351562 526.175781 L 914.875 526.175781 L 914.875 588.699219 Z M 786.910156 588.699219 L 786.910156 526.175781 L 849.433594 526.175781 L 849.433594 588.699219 Z M 721.457031 588.699219 L 721.457031 526.175781 L 783.992188 526.175781 L 783.992188 588.699219 Z M 656 588.699219 L 656 526.175781 L 718.539062 526.175781 L 718.539062 588.699219 Z M 590.558594 588.699219 L 590.558594 526.175781 L 653.085938 526.175781 L 653.085938 588.699219 Z M 525.09375 588.699219 L 525.09375 526.175781 L 587.640625 526.175781 L 587.640625 588.699219 Z M 459.652344 588.699219 L 459.652344 526.175781 L 522.175781 526.175781 L 522.175781 588.699219 Z M 394.210938 588.699219 L 394.210938 526.175781 L 456.734375 526.175781 L 456.734375 588.699219 Z M 456.734375 460.710938 L 456.734375 523.257812 L 394.210938 523.257812 L 394.210938 460.710938 Z M 522.175781 460.710938 L 522.175781 523.257812 L 459.652344 523.257812 L 459.652344 460.710938 Z M 587.640625 460.710938 L 587.640625 523.257812 L 525.117188 523.257812 L 525.117188 460.710938 Z M 653.085938 460.710938 L 653.085938 523.257812 L 590.558594 523.257812 L 590.558594 460.710938 Z M 718.539062 460.710938 L 718.539062 523.257812 L 656 523.257812 L 656 460.710938 Z M 783.992188 460.710938 L 783.992188 523.257812 L 721.457031 523.257812 L 721.457031 460.710938 Z M 849.433594 460.710938 L 849.433594 523.257812 L 786.910156 523.257812 L 786.910156 460.710938 Z M 914.886719 460.710938 L 914.886719 523.257812 L 852.351562 523.257812 L 852.351562 460.710938 Z M 980.339844 460.710938 L 980.339844 523.257812 L 917.804688 523.257812 L 917.804688 460.710938 Z M 983.257812 523.257812 L 983.257812 460.710938 L 1045.792969 460.710938 L 1045.792969 523.257812 Z M 391.292969 460.710938 L 391.292969 523.257812 L 328.757812 523.257812 L 328.757812 460.710938 Z M 391.292969 526.175781 L 391.292969 588.699219 L 328.757812 588.699219 L 328.757812 526.175781 Z M 1048.710938 588.699219 L 1048.710938 526.175781 L 1111.234375 526.175781 L 1111.234375 588.699219 Z M 1048.710938 523.257812 L 1048.710938 460.710938 L 1111.234375 460.710938 L 1111.234375 523.257812 Z M 1048.710938 457.792969 L 1048.710938 395.269531 L 1111.234375 395.269531 L 1111.234375 457.792969 Z M 325.839844 395.269531 L 325.839844 457.792969 L 263.304688 457.792969 L 263.304688 395.269531 Z M 325.839844 460.710938 L 325.839844 523.257812 L 263.304688 523.257812 L 263.304688 460.710938 Z M 325.839844 526.175781 L 325.839844 588.699219 L 263.304688 588.699219 L 263.304688 526.175781 Z M 325.839844 591.617188 L 325.839844 654.1875 L 263.304688 654.1875 L 263.304688 591.617188 Z M 1114.152344 654.1875 L 1114.152344 591.617188 L 1176.6875 591.617188 L 1176.6875 654.1875 Z M 1114.152344 588.746094 L 1114.152344 526.175781 L 1176.6875 526.175781 L 1176.6875 588.699219 Z M 1114.152344 523.304688 L 1114.152344 460.710938 L 1176.6875 460.710938 L 1176.6875 523.257812 Z M 1114.152344 457.839844 L 1114.152344 395.269531 L 1176.6875 395.269531 L 1176.6875 457.792969 Z M 1114.152344 392.398438 L 1114.152344 329.777344 L 1176.6875 329.777344 L 1176.6875 392.304688 Z M 260.386719 329.777344 L 260.386719 392.304688 L 197.851562 392.304688 L 197.851562 329.777344 Z M 260.386719 395.222656 L 260.386719 457.792969 L 197.851562 457.792969 L 197.851562 395.269531 Z M 260.386719 460.664062 L 260.386719 523.210938 L 197.851562 523.210938 L 197.851562 460.710938 Z M 260.386719 526.128906 L 260.386719 588.652344 L 197.851562 588.652344 L 197.851562 526.175781 Z M 260.386719 591.570312 L 260.386719 654.1875 L 197.851562 654.1875 L 197.851562 591.617188 Z M 260.386719 657.011719 L 260.386719 719.558594 L 197.851562 719.558594 L 197.851562 657.011719 Z M 1179.605469 719.558594 L 1179.605469 657.011719 L 1242.140625 657.011719 L 1242.140625 719.558594 Z M 1179.605469 654.09375 L 1179.605469 591.617188 L 1242.140625 591.617188 L 1242.140625 654.1875 Z M 1179.605469 588.652344 L 1179.605469 526.175781 L 1242.140625 526.175781 L 1242.140625 588.699219 Z M 1179.605469 523.210938 L 1179.605469 460.710938 L 1242.140625 460.710938 L 1242.140625 523.257812 Z M 1179.605469 457.746094 L 1179.605469 395.269531 L 1242.140625 395.269531 L 1242.140625 457.792969 Z M 1179.605469 392.304688 L 1179.605469 329.777344 L 1242.140625 329.777344 L 1242.140625 392.304688 Z M 1179.605469 326.863281 L 1179.605469 264.3125 L 1242.140625 264.3125 L 1242.140625 326.863281 Z M 194.875 264.359375 L 194.875 326.910156 L 132.351562 326.910156 L 132.351562 264.359375 Z M 194.875 329.824219 L 194.875 392.351562 L 132.351562 392.351562 L 132.351562 329.777344 Z M 194.875 395.269531 L 194.875 457.792969 L 132.351562 457.792969 L 132.351562 395.269531 Z M 194.875 460.710938 L 194.875 523.257812 L 132.351562 523.257812 L 132.351562 460.710938 Z M 194.875 526.175781 L 194.875 588.699219 L 132.351562 588.699219 L 132.351562 526.175781 Z M 194.875 591.617188 L 194.875 654.1875 L 132.351562 654.1875 L 132.351562 591.617188 Z M 194.875 657.058594 L 194.875 719.605469 L 132.351562 719.605469 L 132.351562 657.058594 Z M 194.875 722.523438 L 194.875 785.046875 L 132.351562 785.046875 L 132.351562 722.523438 Z M 1245 785.046875 L 1245 722.523438 L 1307.585938 722.523438 L 1307.585938 785.046875 Z M 1245 719.605469 L 1245 657.058594 L 1307.585938 657.058594 L 1307.585938 719.605469 Z M 1245 654.140625 L 1245 591.617188 L 1307.585938 591.617188 L 1307.585938 654.1875 Z M 1245 588.699219 L 1245 526.175781 L 1307.585938 526.175781 L 1307.585938 588.699219 Z M 1245 523.257812 L 1245 460.710938 L 1307.585938 460.710938 L 1307.585938 523.257812 Z M 1245 457.792969 L 1245 395.269531 L 1307.585938 395.269531 L 1307.585938 457.792969 Z M 1245 392.351562 L 1245 329.777344 L 1307.585938 329.777344 L 1307.585938 392.304688 Z M 1245 326.910156 L 1245 264.359375 L 1307.585938 264.359375 L 1307.585938 326.910156 Z M 1245 261.445312 L 1245 198.917969 L 1307.585938 198.917969 L 1307.585938 261.445312 Z M 66.957031 198.917969 L 129.527344 198.917969 L 129.527344 261.445312 L 66.992188 261.445312 Z M 66.957031 264.359375 L 129.527344 264.359375 L 129.527344 326.910156 L 66.992188 326.910156 Z M 66.957031 329.824219 L 129.527344 329.824219 L 129.527344 392.351562 L 66.992188 392.351562 Z M 66.957031 395.269531 L 129.527344 395.269531 L 129.527344 457.792969 L 66.992188 457.792969 Z M 66.957031 460.710938 L 129.527344 460.710938 L 129.527344 523.257812 L 66.992188 523.257812 Z M 66.957031 526.175781 L 129.527344 526.175781 L 129.527344 588.699219 L 66.992188 588.699219 Z M 66.957031 591.617188 L 129.527344 591.617188 L 129.527344 654.1875 L 66.992188 654.1875 Z M 66.957031 657.058594 L 129.527344 657.058594 L 129.527344 719.605469 L 66.992188 719.605469 Z M 66.957031 722.523438 L 129.527344 722.523438 L 129.527344 785.046875 L 66.992188 785.046875 Z M 66.957031 787.964844 L 129.527344 787.964844 L 129.527344 850.5 L 66.992188 850.5 Z M 66.957031 915.945312 L 66.957031 853.417969 L 129.527344 853.417969 L 129.527344 915.941406 Z M 132.410156 915.945312 L 132.410156 853.417969 L 194.875 853.417969 L 194.875 915.941406 Z M 197.851562 915.945312 L 197.851562 853.417969 L 260.386719 853.417969 L 260.386719 915.941406 Z M 263.304688 915.945312 L 263.304688 853.417969 L 325.839844 853.417969 L 325.839844 915.941406 Z M 328.757812 915.945312 L 328.757812 853.417969 L 391.292969 853.417969 L 391.292969 915.941406 Z M 394.210938 915.945312 L 394.210938 853.417969 L 456.734375 853.417969 L 456.734375 915.941406 Z M 459.652344 915.945312 L 459.652344 853.417969 L 522.175781 853.417969 L 522.175781 915.941406 Z M 525.09375 915.945312 L 525.09375 853.417969 L 587.644531 853.417969 L 587.644531 915.941406 Z M 590.558594 915.945312 L 590.558594 853.417969 L 653.085938 853.417969 L 653.085938 915.941406 Z M 656 915.945312 L 656 853.417969 L 718.539062 853.417969 L 718.539062 915.941406 Z M 721.457031 915.945312 L 721.457031 853.417969 L 783.992188 853.417969 L 783.992188 915.941406 Z M 786.910156 915.945312 L 786.910156 853.417969 L 849.433594 853.417969 L 849.433594 915.941406 Z M 852.351562 915.945312 L 852.351562 853.417969 L 914.875 853.417969 L 914.875 915.941406 Z M 917.804688 915.945312 L 917.804688 853.417969 L 980.339844 853.417969 L 980.339844 915.941406 Z M 983.257812 915.945312 L 983.257812 853.417969 L 1045.792969 853.417969 L 1045.792969 915.941406 Z M 1048.710938 915.945312 L 1048.710938 853.417969 L 1111.234375 853.417969 L 1111.234375 915.941406 Z M 1114.152344 915.945312 L 1114.152344 853.417969 L 1176.6875 853.417969 L 1176.6875 915.941406 Z M 1179.605469 915.945312 L 1179.605469 853.417969 L 1242.140625 853.417969 L 1242.140625 915.941406 Z M 1245.058594 915.945312 L 1245.058594 853.417969 L 1307.585938 853.417969 L 1307.585938 915.941406 Z M 1373.039062 915.945312 L 1310.464844 915.945312 L 1310.464844 853.417969 L 1373.039062 853.417969 Z M 1373.039062 850.5 L 1310.464844 850.5 L 1310.464844 787.964844 L 1373.039062 787.964844 Z M 1373.039062 785.046875 L 1310.464844 785.046875 L 1310.464844 722.523438 L 1373.039062 722.523438 Z M 1373.039062 719.605469 L 1310.464844 719.605469 L 1310.464844 657.058594 L 1373.039062 657.058594 Z M 1373.039062 654.140625 L 1310.464844 654.140625 L 1310.464844 591.617188 L 1373.039062 591.617188 Z M 1373.039062 588.699219 L 1310.464844 588.699219 L 1310.464844 526.175781 L 1373.039062 526.175781 Z M 1373.039062 523.257812 L 1310.464844 523.257812 L 1310.464844 460.710938 L 1373.039062 460.710938 Z M 1373.039062 457.792969 L 1310.464844 457.792969 L 1310.464844 395.269531 L 1373.039062 395.269531 Z M 1373.039062 392.351562 L 1310.464844 392.351562 L 1310.464844 329.777344 L 1373.039062 329.777344 Z M 1373.039062 326.910156 L 1310.464844 326.910156 L 1310.464844 264.359375 L 1373.039062 264.359375 Z M 1373.039062 261.445312 L 1310.464844 261.445312 L 1310.464844 198.917969 L 1373.039062 198.917969 Z M 1373.039062 196 L 1310.464844 196 L 1310.464844 133.464844 L 1373.039062 133.464844 Z M 1373.039062 68.023438 L 1373.039062 130.546875 L 1310.464844 130.546875 L 1310.464844 68.023438 Z M 1307.585938 68.023438 L 1307.585938 130.546875 L 1245.058594 130.546875 L 1245.058594 68.023438 Z M 1242.140625 68.023438 L 1242.140625 130.546875 L 1179.605469 130.546875 L 1179.605469 68.023438 Z M 1176.6875 68.023438 L 1176.6875 130.546875 L 1114.152344 130.546875 L 1114.152344 68.023438 Z M 1111.234375 68.023438 L 1111.234375 130.546875 L 1048.710938 130.546875 L 1048.710938 68.023438 Z M 1045.792969 68.023438 L 1045.792969 130.546875 L 983.257812 130.546875 L 983.257812 68.023438 Z M 980.339844 68.023438 L 980.339844 130.546875 L 917.804688 130.546875 L 917.804688 68.023438 Z M 914.886719 68.023438 L 914.886719 130.546875 L 852.351562 130.546875 L 852.351562 68.023438 Z M 849.433594 68.023438 L 849.433594 130.546875 L 786.910156 130.546875 L 786.910156 68.023438 Z M 783.992188 68.023438 L 783.992188 130.546875 L 721.457031 130.546875 L 721.457031 68.023438 Z M 718.539062 68.023438 L 718.539062 130.546875 L 656 130.546875 L 656 68.023438 Z M 653.085938 68.023438 L 653.085938 130.546875 L 590.558594 130.546875 L 590.558594 68.023438 Z M 587.644531 68.023438 L 587.644531 130.546875 L 525.117188 130.546875 L 525.117188 68.023438 Z M 522.175781 68.023438 L 522.175781 130.546875 L 459.652344 130.546875 L 459.652344 68.023438 Z M 456.734375 68.023438 L 456.734375 130.546875 L 394.210938 130.546875 L 394.210938 68.023438 Z M 391.292969 68.023438 L 391.292969 130.546875 L 328.757812 130.546875 L 328.757812 68.023438 Z M 325.839844 68.023438 L 325.839844 130.546875 L 263.304688 130.546875 L 263.304688 68.023438 Z M 260.386719 68.023438 L 260.386719 130.546875 L 197.851562 130.546875 L 197.851562 68.023438 Z M 194.933594 68.023438 L 194.933594 130.546875 L 132.410156 130.546875 L 132.410156 68.023438 Z M 129.492188 68.023438 L 129.492188 130.546875 L 66.957031 130.546875 L 66.957031 68.023438 Z M 129.492188 68.023438 " fill-opacity="1" fill-rule="nonzero"/></g></g></g></g><g clip-path="url(#7ad234c0ca)"><path fill="#231f20" d="M 0.882812 764.460938 L 1.53125 764.460938 L 1.53125 1088.460938 L 0.882812 1088.460938 Z M 0.882812 764.460938 " fill-opacity="1" fill-rule="nonzero"/></g><g clip-path="url(#c62f767150)"><path fill="#231f20" d="M -297.234375 789.691406 L 26.765625 789.691406 L 26.765625 790.339844 L -297.234375 790.339844 Z M -297.234375 789.691406 " fill-opacity="1" fill-rule="nonzero"/></g></svg>