<svg width="1140" height="789" viewBox="0 0 1140 789" fill="none" xmlns="http://www.w3.org/2000/svg">
<mask id="mask0_105_2" style="mask-type:luminance" maskUnits="userSpaceOnUse" x="-87" y="0" width="1200" height="800">
<path d="M1113 0H-87V800H1113V0Z" fill="white"/>
</mask>
<g mask="url(#mask0_105_2)">
<path d="M-308.4 -31.7C-258.2 -83.6 -167.1 -86.4 -113.4 -37.7C-57.3 13.3 -48 101.3 4.39999 156.2C54.6 208.9 133.9 219.9 205.6 214.1C277.3 208.3 348.1 188.7 420 192.3C491.9 195.9 569.3 230 596.3 298C619.7 356.8 599.7 422.6 588.2 484.8C576.7 547 579.1 622.6 630 659.4C690 702.7 765.8 665.4 831.1 661.8C941.9 655.7 1053.2 707 1114.5 800.7C1177 896.3 1181.8 1027.6 1126.3 1127" stroke="#2C293A" stroke-miterlimit="10"/>
<path d="M-293.7 -41.3C-242.8 -90.9 -152.7 -92.7 -99.0001 -44.5C-55.2001 -5.30001 -38.8001 55.9 -9.40009 107.1C-1.00009 121.7 8.39993 135.5 19.7999 147.7C69.0999 200.8 145.3 214.3 213.6 211.7C260.3 209.8 306.3 201.9 352.2 198.9C373.5 197.5 394.7 197.2 416.3 199.2C443.6 201.8 472 209.1 498.5 221.2C537.9 239.2 572.5 266.9 589.7 306.1C594.1 316.2 597.2 326.6 599.3 337.1C608.9 385.6 596.1 438.2 587.9 489.1C586.6 497.2 585.5 505.5 584.7 513.9C579.3 570.2 585.3 630.8 627.1 663.5C634.3 669.1 641.8 673.5 649.4 676.9C678.8 689.7 711.3 687.7 744.3 683C770.7 679.2 797.7 673.4 823.1 672.1C829.3 671.8 835.5 671.7 841.7 671.7C875.3 671.8 908.7 676.7 940.5 686.4C1007.3 706.8 1067.2 748.8 1106.6 808.2C1118.7 826.4 1128.7 845.9 1136.5 866.3C1169.4 952.1 1163.9 1053.2 1119 1133.1" stroke="#2C293A" stroke-miterlimit="10"/>
<path d="M-279 -50.9C-227.4 -98.2 -138.4 -98.9 -84.5 -51.3C-40.5 -12.5 -23 47.6 6.40002 98.7C14.8 113.2 24.1 127 35.3 139.3C83.8 192.9 156.9 208.8 221.8 209.3C266.2 209.6 309.5 204.2 352.5 203.1C372.5 202.6 392.4 203.2 412.7 206.1C438.4 209.8 465.4 218.2 491.3 230.7C529.9 249.5 564.8 276.3 583 314.2C587.7 324 591.1 333.9 593.5 344.1C604.8 391 594.5 442.6 587.6 493.3C586.5 501.3 585.5 509.6 584.9 518C580.3 574.2 584.8 634.1 624.3 667.6C631.1 673.3 638.1 677.9 645.4 681.5C673.3 695.1 704.6 694.7 736.9 691.3C762.8 688.6 789.7 683.4 815.1 682.3C821.3 682 827.5 681.9 833.6 682C867.1 682.1 900.4 686.5 932.2 695.8C999 715.3 1059.1 756.7 1098.8 815.6C1111 833.7 1121.1 853.1 1129 873.4C1162.3 958.8 1156.9 1059.7 1111.8 1139.3" stroke="#2C293A" stroke-miterlimit="10"/>
<path d="M-264.3 -60.5C-211.9 -105.4 -124.1 -105.1 -70 -58.2C-25.9 -19.9 -7.20005 39.3 22.2 90.1C30.6 104.6 39.8 118.4 50.8 130.8C98.4 184.8 168.5 203.2 230 206.9C272 209.3 312.8 206.4 352.9 207.4C371.6 207.8 390.1 209.3 409.2 213.1C433.4 217.9 459 227.3 484.3 240.4C522.1 260 557.4 286 576.6 322.4C581.6 331.8 585.3 341.4 588.1 351.1C601.1 396.4 593.3 447 587.6 497.5C586.7 505.5 585.9 513.7 585.3 522.1C581.6 578.2 584.5 637.4 621.6 671.7C628 677.6 634.6 682.3 641.5 686.1C667.9 700.6 698 701.7 729.7 699.7C755.1 698.1 782 693.5 807.3 692.6C813.5 692.4 819.7 692.3 825.8 692.3C859.2 692.5 892.4 696.3 924.2 705.2C990.9 723.8 1051.2 764.7 1091.2 823C1103.5 840.9 1113.7 860.2 1121.6 880.4C1155.2 965.4 1149.9 1066.1 1104.7 1145.4" stroke="#2C293A" stroke-miterlimit="10"/>
<path d="M-249.6 -70.2C-196.5 -112.8 -109.7 -111.5 -55.5 -65.1C-11.2 -27.2 8.6 30.9 38 81.6C46.4 96 55.6 109.8 66.3 122.3C113 176.7 180.1 197.6 238.2 204.4C277.9 208.9 316 208.6 353.2 211.5C370.6 212.9 387.8 215.2 405.6 219.9C428.2 225.9 452.4 236.2 477.2 249.8C514.2 270.2 549.8 295.4 570.1 330.3C575.4 339.3 579.4 348.6 582.5 357.9C597.2 401.6 591.9 451.2 587.4 501.5C586.7 509.4 586.1 517.6 585.6 526C582.8 582 584 640.5 618.8 675.5C624.7 681.5 631 686.4 637.5 690.4C662.4 705.7 691.3 708.4 722.3 707.8C747.1 707.2 774 703.3 799.3 702.6C805.5 702.4 811.6 702.4 817.7 702.4C851 702.6 884.1 706 915.9 714.4C982.6 732.1 1043.1 772.4 1083.3 830.2C1095.7 848 1105.9 867.1 1114 887.2C1148 971.7 1142.7 1072.4 1097.4 1151.3" stroke="#2C293A" stroke-miterlimit="10"/>
<path d="M-234.8 -79.8C-181 -120.1 -95.3001 -117.7 -41.0001 -71.9C3.39994 -34.5 24.3 22.7 53.9 73.1C62.3 87.5 71.4 101.3 81.9 113.8C127.7 168.7 191.8 192.1 246.5 202C283.9 208.7 319.3 210.8 353.7 215.8C369.7 218.1 385.6 221.4 402.2 226.9C423.2 234 446.1 245.3 470.3 259.5C506.4 280.8 542.4 305.1 563.7 338.6C569.2 347.3 573.6 356.1 577.1 365.1C593.6 407.3 590.6 455.9 587.4 505.9C586.9 513.8 586.4 521.9 586.1 530.3C584.2 586.3 583.8 644 616.2 679.8C621.7 685.9 627.6 691 633.7 695.2C657.1 711.3 684.8 715.6 715.2 716.3C739.5 716.8 766.4 713.5 791.7 713C797.9 712.9 804 712.8 810.1 712.9C843.3 713.1 876.3 716 908 724C974.7 740.8 1035.4 780.5 1075.9 837.8C1088.4 855.4 1098.7 874.4 1106.9 894.4C1141.2 978.5 1136 1079 1090.6 1157.6" stroke="#2C293A" stroke-miterlimit="10"/>
<path d="M-220.1 -89.4C-165.6 -127.3 -81 -124 -26.5 -78.8C18.1 -41.8 40.1 14.3 69.7 64.5C78.1 78.8 87.1 92.6 97.5 105.2C142.4 160.5 203.5 186.4 254.8 199.4C289.8 208.3 322.5 212.9 354.1 219.8C368.8 223 383.3 227.2 398.6 233.6C418.1 241.8 439.5 254.1 463.2 268.8C498.5 290.9 534.9 314.4 557.2 346.4C563 354.7 567.7 363.2 571.5 371.8C589.7 412.4 589.3 460 587.3 509.9C587 517.8 586.7 525.9 586.5 534.1C585.5 590 583.5 647 613.5 683.6C618.6 689.8 624 695.1 629.8 699.6C651.7 716.5 678.2 722.5 707.9 724.5C731.6 726.1 758.5 723.4 783.8 723.1C789.9 723 796.1 723 802.1 723C835.2 723.3 868.1 725.6 899.8 733.2C966.4 749.1 1027.4 788.2 1068.1 845C1080.6 862.5 1091.1 881.3 1099.4 901.2C1134.1 984.8 1128.9 1085.3 1083.4 1163.5" stroke="#2C293A" stroke-miterlimit="10"/>
<path d="M-205.4 -99C-150.1 -134.6 -66.7 -130.2 -12 -85.6C32.7 -49.1 55.9 6.10001 85.5 56.1C94 70.4 102.9 84.1 113 96.8C157.1 152.6 215 180.9 262.9 197.1C295.6 208.1 325.6 215.2 354.3 224.2C367.7 228.4 380.9 233.4 394.9 240.7C412.8 250.1 432.9 263.3 455.9 278.6C490.4 301.5 527.1 324.1 550.5 354.8C556.6 362.8 561.5 370.9 565.8 379.1C585.8 418.1 587.8 464.7 587 514.4C586.9 522.2 586.7 530.3 586.7 538.5C586.6 594.3 583 650.6 610.6 688C615.3 694.3 620.3 699.8 625.8 704.5C646.2 722.2 671.6 729.8 700.5 733.1C723.7 735.8 750.6 733.8 775.8 733.6C781.9 733.6 788 733.6 794.1 733.6C827.1 733.9 859.9 735.8 891.6 742.9C958.2 757.8 1019.3 796.5 1060.3 852.7C1072.9 870 1083.5 888.8 1091.8 908.5C1126.9 991.7 1121.7 1092 1076.1 1169.8" stroke="#2C293A" stroke-miterlimit="10"/>
<path d="M-190.7 -108.6C-134.7 -141.9 -52.3001 -136.5 2.39993 -92.4C47.2999 -56.3 71.4999 -2.19999 101.2 47.6C109.7 61.8 118.5 75.6 128.4 88.4C171.6 144.6 226.5 175.4 271 194.7C301.3 207.9 328.6 217.5 354.6 228.4C366.6 233.5 378.5 239.4 391.3 247.6C407.6 258.1 426.3 272.4 448.8 288.1C482.5 311.8 519.5 333.6 543.9 362.8C550.2 370.4 555.5 378.1 560.1 386C581.9 423.5 586.3 469 586.7 518.5C586.8 526.3 586.8 534.3 586.9 542.5C587.6 598.2 582.5 653.8 607.7 691.9C612 698.3 616.6 704 621.7 708.9C640.7 727.4 664.8 736.6 693.1 741.3C715.7 745 742.6 743.7 767.9 743.7C774 743.7 780.1 743.7 786.1 743.8C819 744.1 851.7 745.5 883.4 752.2C949.9 766.2 1011.3 804.3 1052.6 860C1065.3 877.2 1076 895.8 1084.4 915.5C1119.8 998.3 1114.7 1098.4 1069 1175.9" stroke="#2C293A" stroke-miterlimit="10"/>
<path d="M-176 -118.3C-119.3 -149.2 -38 -142.8 16.9 -99.4C62 -63.8 87.3 -10.6 117 39C125.5 53.2 134.2 66.9 143.9 79.8C186.2 136.5 238.1 169.7 279.2 192.2C307.2 207.5 331.7 219.5 354.9 232.6C365.5 238.6 376.2 245.4 387.7 254.5C402.5 266.2 419.8 281.4 441.7 297.7C474.5 322.3 512 343.2 537.4 371C544 378.2 549.6 385.6 554.6 393.1C578.2 429 584.9 473.5 586.6 522.8C586.9 530.5 587 538.5 587.3 546.7C588.8 602.4 582.2 657.1 605 696.1C608.8 702.6 613.1 708.4 617.8 713.6C635.3 732.9 658.2 743.7 685.8 749.7C707.9 754.5 734.7 753.8 760 754C766.1 754.1 772.2 754.1 778.2 754.2C811 754.5 843.6 755.5 875.3 761.7C941.8 774.8 1003.4 812.3 1044.9 867.5C1057.7 884.5 1068.5 903 1077 922.6C1112.8 1004.9 1107.7 1105 1061.8 1182.1" stroke="#2C293A" stroke-miterlimit="10"/>
<path d="M-161.3 -127.9C-103.8 -156.5 -23.6 -149.1 31.4 -106.2C76.6 -71.1 103.1 -18.9 132.8 30.5C141.3 44.6 150 58.4 159.4 71.3C200.8 128.4 249.6 164.1 287.4 189.7C313.1 207.1 334.7 221.6 355.3 236.7C364.6 243.5 373.9 251.4 384.2 261.3C397.4 274.1 413.3 290.3 434.7 307.1C466.7 332.5 504.5 352.6 531 378.9C537.9 385.8 543.8 392.8 549.1 399.9C574.5 434.2 583.6 477.7 586.6 526.8C587.1 534.5 587.4 542.4 587.8 550.6C590.2 606.2 582 660.2 602.5 700C605.9 706.7 609.8 712.6 614.1 718C630.1 738.1 651.8 750.5 678.7 757.9C700.3 763.8 727.1 763.7 752.3 764.1C758.4 764.2 764.5 764.3 770.4 764.3C803.1 764.7 835.6 765.1 867.2 770.9C933.6 783.1 995.4 820 1037.2 874.7C1050.1 891.6 1061 909.9 1069.6 929.4C1105.7 1011.3 1100.7 1111.2 1054.7 1188" stroke="#2C293A" stroke-miterlimit="10"/>
<path d="M-146.5 -137.5C-88.3 -163.8 -9.29999 -155.3 45.9 -113C91.3 -78.3 118.9 -27.1 148.6 22.1C157.1 36.2 165.7 49.9 174.9 62.9C215.4 120.4 261.2 158.5 295.6 187.4C318.9 207 337.8 223.8 355.6 241C363.5 248.7 371.6 257.5 380.6 268.3C392.3 282.3 406.7 299.4 427.5 316.8C458.7 343 496.9 362.2 524.4 387.2C531.6 393.7 537.9 400.3 543.5 407.1C570.7 439.8 582.2 482.4 586.4 531.2C587.1 538.8 587.6 546.7 588 554.9C591.3 610.4 581.5 663.6 599.6 704.2C602.6 711 606 717.1 610 722.7C624.5 743.6 645 757.6 671.3 766.4C692.3 773.4 719.1 773.9 744.4 774.5C750.5 774.6 756.5 774.7 762.5 774.8C795.1 775.2 827.5 775.1 859.1 780.5C925.5 791.8 987.5 828.2 1029.5 882.3C1042.5 899 1053.5 917.2 1062.1 936.6C1098.6 1018 1093.6 1117.8 1047.5 1194.3" stroke="#2C293A" stroke-miterlimit="10"/>
<path d="M-131.8 -147.1C-72.9 -171 5.09996 -161.6 60.4 -119.9C105.9 -85.7 134.6 -35.5 164.4 13.5C172.9 27.5 181.4 41.3 190.5 54.3C230.2 112.3 272.9 152.8 303.9 184.8C324.9 206.5 341 225.6 356 245.1C362.5 253.6 369.3 263.4 377.1 275.1C387.2 290.2 400.3 308.3 420.5 326.2C450.9 353.2 489.4 371.6 517.9 395.1C525.4 401.2 532 407.5 537.9 413.9C567 445.1 580.8 486.6 586.2 535.2C587 542.8 587.7 550.7 588.3 558.8C592.5 614.2 581.1 666.7 596.8 708.1C599.4 715 602.4 721.3 606 727.2C619.1 748.9 638.3 764.5 663.9 774.6C684.4 782.7 711.2 783.8 736.4 784.6C742.5 784.8 748.5 784.9 754.4 785C786.9 785.4 819.2 784.9 850.8 789.8C917.2 800.2 979.4 836 1021.7 889.6C1034.8 906.2 1045.9 924.3 1054.6 943.5C1091.5 1024.5 1086.5 1124.2 1040.3 1200.3" stroke="#2C293A" stroke-miterlimit="10"/>
<path d="M-117.1 -156.8C-57.5 -178.4 19.4 -167.9 74.9 -126.8C120.6 -93 150.4 -43.8 180.2 4.89998C188.7 18.9 197.2 32.6 206 45.8C244.8 104.2 284.5 147.2 312 182.4C330.6 206.2 344.1 227.5 356.3 249.3C361.5 258.6 367 269.5 373.5 282C382 298.3 393.7 317.4 413.4 335.8C442.9 363.6 481.9 381.2 511.4 403.3C519.1 409.1 526.1 415 532.4 421C563.3 450.6 579.4 491.1 586.1 539.6C587.1 547.1 588 555 588.7 563.1C593.8 618.5 580.9 670.1 594.1 712.4C596.3 719.4 598.9 725.9 602.1 732C613.7 754.4 631.7 771.7 656.7 783.2C676.6 792.3 703.4 794.2 728.6 795.1C734.7 795.3 740.7 795.5 746.5 795.5C778.9 796 811.1 794.9 842.7 799.4C909 808.9 971.5 844.1 1014 897.2C1027.2 913.6 1038.3 931.6 1047.2 950.7C1084.4 1031.3 1079.5 1130.8 1033.2 1206.6" stroke="#2C293A" stroke-miterlimit="10"/>
<path d="M-102.4 -166.4C-42 -185.7 33.7 -174.2 89.3 -133.6C135.1 -100.3 166.1 -52.1 195.9 -3.5C204.5 10.4 212.8 24.1 221.4 37.4C259.3 96.3 296 141.6 320.1 180C336.4 205.9 347.2 229.5 356.5 253.6C360.4 263.7 364.5 275.6 369.8 289C376.8 306.5 387.1 326.5 406.2 345.4C434.9 374.1 474.2 390.8 504.8 411.4C512.8 416.8 520.1 422.3 526.7 428C559.5 455.9 577.9 495.5 585.9 543.8C587.1 551.3 588.1 559.1 589 567.1C595 622.4 580.5 673.3 591.3 716.3C593.1 723.4 595.3 730.1 598.1 736.4C608.2 759.6 625 778.5 649.3 791.3C668.7 801.5 695.5 804 720.7 805.1C726.8 805.4 732.8 805.5 738.6 805.6C770.9 806.1 803 804.6 834.6 808.6C900.9 817.2 963.5 851.8 1006.3 904.4C1019.6 920.7 1030.8 938.5 1039.8 957.5C1077.4 1037.6 1072.5 1137.1 1026.1 1212.4" stroke="#2C293A" stroke-miterlimit="10"/>
<path d="M-87.7 -176C-26.6 -192.9 48.1 -180.4 103.8 -140.5C149.8 -107.6 181.8 -60.4 211.7 -12.1C220.3 1.79999 228.5 15.5 236.9 28.8C273.9 88.1 307.6 135.9 328.3 177.5C342.3 205.5 350.5 231.4 356.9 257.7C359.5 268.6 362.2 281.6 366.3 295.8C371.7 314.4 380.6 335.4 399.2 354.9C427.1 384.4 466.8 400.2 498.3 419.4C506.6 424.5 514.2 429.6 521.1 434.9C555.8 461.2 576.5 499.8 585.7 547.9C587.1 555.4 588.3 563.1 589.3 571.1C596.2 626.3 580.2 676.4 588.5 720.3C589.9 727.5 591.7 734.3 594.1 740.9C602.8 764.9 618.4 785.4 641.9 799.6C660.7 810.9 687.5 814 712.7 815.3C718.7 815.6 724.7 815.8 730.5 815.9C762.7 816.4 794.7 814.4 826.2 818C892.4 825.7 955.3 859.8 998.4 911.8C1011.8 927.9 1023.1 945.6 1032.1 964.6C1070 1044.3 1065.2 1143.6 1018.7 1218.6" stroke="#2C293A" stroke-miterlimit="10"/>
<path d="M-73 -185.6C-11.2 -200.2 62.4 -186.6 118.3 -147.3C164.4 -114.9 197.6 -68.7 227.5 -20.5C236.1 -6.7 244.3 6.99999 252.4 20.4C288.6 80.2 319.2 130.3 336.5 175.1C348.2 205.2 353.8 233.3 357.2 262C358.6 273.7 359.8 287.7 362.7 302.8C366.5 322.6 374.1 344.5 392 364.5C419.1 394.8 459.2 409.8 491.7 427.6C500.3 432.3 508.2 437 515.5 442C552 466.7 575 504.3 585.5 552.2C587.1 559.6 588.4 567.3 589.6 575.3C597.4 630.4 579.8 679.7 585.7 724.5C586.7 731.8 588.1 738.8 590.1 745.6C597.4 770.3 611.7 792.5 634.6 808.1C652.9 820.5 679.7 824.2 704.8 825.7C710.8 826.1 716.8 826.3 722.6 826.3C754.7 826.8 786.6 824.3 818.1 827.5C884.3 834.2 947.4 867.8 990.7 919.3C1004.1 935.3 1015.6 952.8 1024.7 971.7C1063 1050.9 1058.2 1150.1 1011.6 1224.8" stroke="#2C293A" stroke-miterlimit="10"/>
<path d="M-58.2 -195.3C4.30005 -207.6 76.8 -193 132.8 -154.2C179.1 -122.2 213.4 -77 243.3 -29.1C251.9 -15.3 260 -1.60003 268 11.8C303.3 72 330.9 124.6 344.8 172.6C354.1 204.8 357.3 235.3 357.6 266.1C357.7 278.6 357.6 293.6 359.2 309.6C361.4 330.6 367.6 353.4 385 373.9C411.2 405 451.7 419.1 485.3 435.5C494.1 439.8 502.4 444.2 510 448.8C548.4 471.8 573.7 508.6 585.4 556.2C587.2 563.6 588.7 571.2 590 579.2C598.8 634.2 579.6 682.8 583 728.3C583.6 735.7 584.6 742.9 586.2 750C592 775.5 605.1 799.3 627.3 816.2C645.1 829.7 671.8 834 696.9 835.7C702.9 836.1 708.9 836.3 714.6 836.4C746.6 837 778.4 834 809.9 836.7C876 842.5 939.4 875.5 982.9 926.5C996.4 942.3 1008 959.8 1017.2 978.5C1055.8 1057.3 1051.2 1156.4 1004.4 1230.7" stroke="#2C293A" stroke-miterlimit="10"/>
<path d="M-43.5 -204.9C19.8 -214.8 91.1 -199.2 147.3 -161.1C193.7 -129.6 229.2 -85.4 259.1 -37.6C267.7 -23.9 275.8 -10.2 283.5 3.29999C317.9 63.9 342.5 119 353 170.1C360 204.5 360.7 237.3 358 270.2C356.9 283.5 355.3 299.6 355.7 316.4C356.3 338.5 361.2 362.3 378 383.4C403.4 415.4 444.3 428.6 478.8 443.6C487.9 447.6 496.5 451.5 504.5 455.8C544.8 477.1 572.3 513 585.4 560.4C587.4 567.7 589.1 575.4 590.4 583.3C600.1 638.3 579.4 686 580.3 732.4C580.5 739.9 581.1 747.3 582.3 754.6C586.7 780.9 598.5 806.3 620.1 824.6C637.3 839.1 664 844.2 689.2 846C695.2 846.4 701.2 846.7 706.9 846.8C738.8 847.4 770.5 843.9 802 846.3C868.1 851.2 931.6 883.7 975.5 934.1C989.1 949.8 1000.8 967.1 1010.1 985.7C1049.1 1064.1 1044.5 1163 997.6 1237" stroke="#2C293A" stroke-miterlimit="10"/>
<path d="M-28.8 -214.5C35.2 -222.1 105.5 -205.5 161.8 -167.9C208.4 -136.8 244.9 -93.6 274.9 -46.1C283.5 -32.5 291.5 -18.7 299 -5.10001C332.5 56 354.1 113.4 361.1 167.8C365.8 204.3 364 239.5 358.2 274.6C355.9 288.8 352.8 305.8 352 323.5C351 346.8 354.5 371.6 370.8 393.1C395.4 425.9 436.6 438.3 472.2 451.8C481.6 455.4 490.6 459 498.8 462.8C541.1 482.5 570.8 517.5 585.2 564.7C587.4 572 589.2 579.6 590.7 587.5C601.3 642.4 579.1 689.4 577.6 736.6C577.4 744.2 577.5 751.8 578.4 759.3C581.4 786.4 591.9 813.5 612.8 833C629.5 848.6 656.2 854.3 681.3 856.3C687.3 856.8 693.2 857.1 698.9 857.2C730.7 857.8 762.3 853.8 793.7 855.8C859.7 859.8 923.5 891.7 967.6 941.6C981.3 957.1 993.1 974.3 1002.4 992.8C1041.8 1070.7 1037.2 1169.6 990.2 1243.2" stroke="#2C293A" stroke-miterlimit="10"/>
<path d="M-14.1 -224.1C50.6 -229.4 119.8 -211.7 176.2 -174.7C223 -144.1 260.6 -101.9 290.6 -54.6C299.2 -41 307.1 -27.3 314.4 -13.6C347 47.9 365.7 107.8 369.2 165.3C371.7 203.9 367.3 241.5 358.4 278.7C354.8 293.8 350.3 311.7 348.3 330.3C345.7 354.7 347.9 380.5 363.6 402.6C387.4 436.2 429 447.7 465.6 459.9C475.3 463.1 484.6 466.3 493.2 469.8C537.2 487.7 569.3 521.8 584.9 568.9C587.3 576.1 589.3 583.7 590.9 591.6C602.3 646.4 578.7 692.6 574.7 740.7C574.1 748.4 573.8 756.1 574.3 763.9C575.9 791.7 585.1 820.5 605.3 841.4C621.4 858.1 648.1 864.4 673.2 866.6C679.2 867.1 685.1 867.4 690.8 867.5C722.5 868.1 754 863.7 785.4 865.2C851.4 868.3 915.4 899.6 959.7 949C973.5 964.4 985.4 981.4 994.8 999.8C1034.5 1077.3 1030 1176 982.9 1249.3" stroke="#2C293A" stroke-miterlimit="10"/>
<path d="M0.599976 -233.8C66 -236.8 134.1 -218.1 190.7 -181.7C237.6 -151.5 276.4 -110.3 306.5 -63.2C315.2 -49.7 323 -36 330 -22.2C361.8 39.8 377.4 102.1 377.5 162.8C377.6 203.5 370.8 243.5 358.9 282.9C354.1 298.8 348.1 317.7 344.9 337.2C340.7 362.8 341.5 389.5 356.6 412.1C379.6 446.5 421.6 457.1 459.1 467.9C469.1 470.7 478.7 473.6 487.6 476.7C533.5 492.9 567.9 526.2 584.7 573C587.3 580.2 589.5 587.7 591.2 595.6C603.5 650.3 578.4 695.8 571.9 744.6C570.9 752.4 570.2 760.3 570.3 768.3C570.4 796.9 578.4 827.3 598 849.5C613.6 867.3 640.3 874.2 665.4 876.6C671.4 877.2 677.3 877.5 682.9 877.6C714.5 878.3 745.9 873.3 777.3 874.4C843.3 876.6 907.5 907.3 952 956.2C965.9 971.4 977.8 988.3 987.4 1006.7C1027.5 1083.7 1023 1182.3 975.8 1255.2" stroke="#2C293A" stroke-miterlimit="10"/>
<path d="M15.4 -243.4C81.5 -244 148.5 -224.3 205.2 -188.5C252.3 -158.8 292.2 -118.5 322.3 -71.7C331 -58.2 338.7 -44.5 345.5 -30.7C376.4 31.7 389 96.5 385.7 160.3C383.5 203.2 374.2 245.6 359.2 287C353.1 303.8 345.7 323.7 341.3 344C335.5 370.7 334.9 398.4 349.5 421.6C371.6 456.9 414 466.6 452.6 476C462.8 478.5 472.8 480.9 482.1 483.7C529.9 498.2 566.6 530.6 584.7 577.2C587.5 584.3 589.8 591.8 591.7 599.6C604.9 654.3 578.4 699 569.3 748.6C567.9 756.6 566.8 764.6 566.5 772.9C565.3 802.3 571.9 834.3 590.8 857.9C605.9 876.7 632.5 884.3 657.6 886.9C663.6 887.5 669.4 887.8 675.1 888C706.6 888.7 737.9 883.3 769.3 883.9C835.2 885.2 899.6 915.4 944.5 963.7C958.5 978.8 970.5 995.6 980.2 1013.8C1020.6 1090.4 1016.2 1188.9 968.8 1261.4" stroke="#2C293A" stroke-miterlimit="10"/>
<path d="M30.1 -253C152.6 -249.9 271.6 -183.1 338.1 -80.2C412.4 34.7 410.3 168.7 359.6 291.3C342.7 332.2 317.9 389.5 342.5 431.3C369.5 476.9 430.7 479 476.6 490.8C533.8 505.5 576.9 545.2 592.1 603.8C608.5 667.1 568 716.2 562.6 777.5C559.9 807.7 565.4 841.3 583.6 866.3C601.6 891 638.1 897.7 667.2 898.4C698.6 899.1 729.8 893.2 761.2 893.4C847.6 893.9 931.9 944.7 972.7 1020.9C1013.5 1097.1 1009.1 1195.4 961.6 1267.6" stroke="#2C293A" stroke-miterlimit="10"/>
<path d="M18.4 -247.7C81 -246.6 142.7 -230 197.6 -200.5C251.3 -171.6 298.6 -130 332.5 -79C358.3 -40.2 375.1 1.30003 383.6 44.2C391.6 84.6 392.2 125.9 386.3 166.5C381.9 197.1 373.9 227.2 363.1 256.9C358.6 269.3 353.6 281.5 348.2 293.7C341.5 308.7 333.7 326 327.9 343.9C318 374.5 313 407.7 328.6 434.5C345.5 463.4 376.5 475.2 408.4 482.5C427.2 486.8 446.4 489.6 463.5 493.5C479.1 497.1 493.6 502.5 507 509.4C537.1 525.2 560.8 549.4 575.1 581.3C577.8 587.4 580.2 593.8 582.3 600.4C593.1 636.4 585.1 668.5 575.3 701.2C568.4 724.4 560.6 748 558.5 773.6C558.4 774.5 558.4 775.4 558.3 776.4C556.4 806 561.6 838.7 579.4 863C591.5 879.6 611.9 888.3 632.9 892.3C643.7 894.4 654.7 895.2 664.9 895.2C676.4 895.3 687.9 894.4 699.3 893.3C719.6 891.2 739.9 888.2 760.2 887.6C784.2 886.8 808 889.6 830.9 895.8C873.1 907 912.6 929.5 943.3 961.5C956.5 975.3 968 990.9 977.4 1007.9C981 1014.4 984.3 1021.2 987.2 1028C1018.9 1102.1 1011.1 1192.5 966 1259.3" stroke="#2C293A" stroke-miterlimit="10"/>
<path d="M6.69995 -242.3C70 -241.7 132.6 -226.3 188.5 -197.8C243.2 -169.8 291.9 -128.8 326.8 -77.7C353.3 -38.9 370.6 2.9 378.8 46.7C386.6 87.6 386.3 129.5 379.2 170.1C373.8 200.7 364.7 230.5 352.9 259.9C348 272.1 342.6 284.3 336.8 296.4C329.6 311.4 321.4 328.5 315.2 346.5C304.7 376.9 299.1 410.9 314.7 438C331.5 467 363 479.2 394.9 486.3C413.8 490.5 433.1 493 450.4 496.6C466.1 499.9 480.7 504.7 494.2 511.1C524.6 525.6 549 548.2 564.4 578.9C567.4 584.8 570 590.9 572.3 597.4C584.4 632.3 578.2 664.3 569.5 697.2C563.4 720.6 556.1 744.4 554.1 770.1C554 771 554 771.9 553.9 772.9C552.1 802.7 557.1 835.6 575 860.1C587.4 877.1 608.2 886 629.6 889.9C640.7 891.9 651.9 892.6 662.2 892.5C673.9 892.4 685.6 891.3 697.2 889.9C717.8 887.3 738.3 883.7 758.8 882.3C783 880.6 807 882.3 830.2 887.3C873 896.5 913.9 916.9 946 948.6C959.8 962.3 971.8 978 981.5 995.2C985.2 1001.8 988.6 1008.7 991.7 1015.6C1024.7 1091 1016.5 1183.7 969.7 1251.4" stroke="#2C293A" stroke-miterlimit="10"/>
<path d="M-5 -237C59 -236.9 122.4 -222.8 179.5 -195.2C235.1 -168.2 285.4 -127.6 321.2 -76.5C348.3 -37.7 366.1 4.50001 374.1 49.1C381.6 90.6 380.5 132.9 372.1 173.5C365.8 204.1 355.5 233.5 342.7 262.6C337.3 274.7 331.6 286.8 325.4 298.8C317.7 313.8 309 330.8 302.5 348.8C291.5 379.1 285.1 413.7 300.7 441.2C317.4 470.4 349.4 482.9 381.4 489.8C400.4 493.9 419.8 496.1 437.3 499.3C453 502.2 467.8 506.6 481.5 512.4C512.2 525.7 537.3 546.7 553.9 576.2C557.1 581.8 560 587.8 562.5 594.1C575.9 627.9 571.6 659.8 563.9 692.9C558.6 716.4 551.7 740.5 550 766.3C549.9 767.2 549.9 768.2 549.8 769.1C548.2 799 552.8 832.3 570.8 856.9C583.5 874.3 604.7 883.4 626.6 887.2C637.9 889.2 649.3 889.7 659.9 889.4C671.8 889.1 683.7 887.8 695.5 886C716.5 882.9 737.1 878.6 757.8 876.4C782.2 873.8 806.4 874.4 830 878.3C873.5 885.4 915.7 903.9 949.1 935.3C963.5 948.9 976 964.7 986.1 982.1C990 988.8 993.5 995.7 996.7 1002.8C1031 1079.4 1022.4 1174.6 973.9 1243" stroke="#2C293A" stroke-miterlimit="10"/>
<path d="M-16.7 -231.6C48 -232.1 112.2 -219.1 170.4 -192.5C227 -166.4 278.8 -126.4 315.6 -75.3C343.4 -36.6 361.7 6 369.4 51.5C376.6 93.5 374.7 136.4 365.1 176.9C357.8 207.5 346.3 236.6 332.5 265.4C326.7 277.4 320.6 289.3 314 301.3C305.8 316.3 296.7 333.2 289.8 351.3C278.3 381.4 271.1 416.8 286.7 444.6C303.3 474 335.8 486.8 367.8 493.5C387 497.5 406.4 499.4 424.1 502.2C439.9 504.7 454.8 508.7 468.6 514C499.7 526 525.4 545.4 543.1 573.7C546.5 579.1 549.7 584.8 552.4 591C567.1 623.7 564.5 655.5 558.1 688.7C553.5 712.4 547.2 736.6 545.7 762.6C545.6 763.5 545.6 764.5 545.6 765.4C544.2 795.5 548.4 829.1 566.6 853.9C579.6 871.6 601.2 881 623.5 884.7C635 886.6 646.6 887.1 657.5 886.6C669.7 886.1 681.7 884.5 693.6 882.5C714.9 878.9 735.7 874 756.6 871C781.2 867.5 805.6 867 829.5 869.7C873.6 874.8 917.2 891.2 952 922.3C967 935.7 979.9 951.7 990.4 969.4C994.4 976.2 998.1 983.2 1001.4 990.4C1037 1068.3 1028 1165.8 977.8 1235" stroke="#2C293A" stroke-miterlimit="10"/>
<path d="M-28.4 -226.3C37.1 -227.3 102.1 -215.5 161.3 -189.9C218.9 -164.8 272.1 -125.3 309.9 -74.1C338.4 -35.4 357.1 7.59998 364.6 53.9C371.6 96.4 368.8 139.8 357.9 180.3C349.6 210.9 337 239.7 322.2 268.1C316 280 309.4 291.8 302.5 303.7C293.8 318.7 284.2 335.5 277 353.6C265 383.6 257.1 419.7 272.7 447.8C289.2 477.3 322.2 490.5 354.3 497C373.6 500.9 393.2 502.5 411 505C426.9 507.2 441.9 510.6 455.9 515.4C487.3 526.2 513.7 544 532.6 571C536.2 576.2 539.7 581.7 542.7 587.6C558.6 619.2 557.9 651 552.6 684.3C548.8 708.1 543 732.6 541.6 758.7C541.6 759.6 541.5 760.6 541.5 761.5C540.3 791.7 544.1 825.6 562.4 850.6C575.7 868.7 597.7 878.3 620.5 882C632.2 883.9 644.1 884.2 655.2 883.6C667.6 882.9 679.8 881.1 691.9 878.8C713.5 874.7 734.5 869.2 755.6 865.4C780.4 861 805 859.3 829.3 861C874 864 919.1 878.4 955.2 909.2C970.8 922.5 984.2 938.6 995.1 956.5C999.3 963.4 1003.1 970.5 1006.5 977.9C1043.4 1057.1 1034 1157 982.1 1226.9" stroke="#2C293A" stroke-miterlimit="10"/>
<path d="M-40.1 -220.9C26.1 -222.4 91.9 -211.9 152.2 -187.2C210.8 -163.1 265.5 -124.1 304.3 -72.8C333.4 -34.1 352.6 9.3 359.9 56.4C366.5 99.5 363 143.4 350.9 183.9C341.7 214.5 327.9 242.9 312.1 271C305.5 282.7 298.5 294.5 291.2 306.3C282 321.2 272 338 264.4 356.1C251.9 385.9 243.2 422.7 258.8 451.2C275.2 480.9 308.7 494.4 340.8 500.7C360.2 504.4 379.9 505.8 397.9 507.9C413.9 509.7 429 512.7 443.2 516.9C475 526.4 502 542.7 522 568.4C525.9 573.4 529.5 578.7 532.8 584.4C549.9 614.9 551.1 646.6 546.9 680C543.9 703.9 538.6 728.7 537.4 754.9C537.4 755.8 537.3 756.8 537.3 757.7C536.2 788.1 539.7 822.3 558.2 847.4C571.8 865.9 594.3 875.7 617.4 879.3C629.4 881.1 641.4 881.3 652.7 880.5C665.3 879.6 677.8 877.5 690 875C711.9 870.4 733.2 864.2 754.4 859.7C779.5 854.4 804.3 851.6 828.8 852.2C874.2 853.2 920.6 865.6 958 896.1C974.2 909.2 988.1 925.5 999.3 943.7C1003.6 950.7 1007.6 957.9 1011.1 965.4C1049.3 1045.9 1039.5 1148.1 985.9 1218.9" stroke="#2C293A" stroke-miterlimit="10"/>
<path d="M-51.8 -215.6C15.1 -217.6 81.6999 -208.3 143.1 -184.6C202.7 -161.4 258.9 -122.9 298.6 -71.6C328.4 -32.9 348 10.8 355 58.8C361.4 102.4 357 146.8 343.6 187.3C333.4 217.9 318.4 246 301.6 273.8C294.5 285.4 287.2 297 279.5 308.7C269.7 323.6 259.3 340.3 251.4 358.4C238.4 388.1 228.9 425.6 244.6 454.4C260.9 484.2 294.8 498.1 327.1 504.2C346.6 507.8 366.4 509 384.6 510.6C400.7 512.1 415.9 514.5 430.2 518.2C462.3 526.4 490 541.1 511.2 565.7C515.3 570.4 519.2 575.5 522.7 581.1C541.1 610.5 544.1 642.1 541 675.7C538.8 699.8 534 724.8 533 751.1C533 752.1 532.9 753 532.9 754C532 784.5 535.1 819.1 553.7 844.3C567.6 863.1 590.5 873.2 614.1 876.7C626.3 878.5 638.5 878.5 650.1 877.6C662.9 876.5 675.6 874.2 688 871.3C710.2 866.2 731.7 859.4 753.1 854.1C778.4 847.9 803.4 844 828.3 843.4C874.3 842.3 922.1 852.7 960.9 882.9C977.6 895.9 992 912.3 1003.7 930.7C1008.2 937.8 1012.2 945.1 1015.9 952.7C1055.5 1034.4 1045.2 1139.1 989.9 1210.6" stroke="#2C293A" stroke-miterlimit="10"/>
<path d="M-63.5 -210.2C4.2 -212.7 71.5 -204.6 134.1 -181.9C194.6 -159.7 252.3 -121.7 293.1 -70.4C323.6 -31.8 343.7 12.4 350.4 61.3C356.5 105.4 351.3 150.4 336.7 190.8C325.5 221.4 309.4 249.2 291.6 276.6C284.1 288.1 276.3 299.6 268.3 311.2C258 326.1 247.2 342.7 238.9 360.8C225.4 390.3 215.2 428.5 230.8 457.7C247 487.7 281.4 501.9 313.7 507.8C333.3 511.3 353.2 512.2 371.6 513.5C387.7 514.6 403.1 516.6 417.6 519.7C450 526.7 478.5 539.8 500.7 563.1C505 567.6 509.2 572.5 512.9 577.9C532.5 606.2 537.4 637.8 535.4 671.5C534 695.7 529.7 720.9 528.8 747.4C528.8 748.4 528.7 749.3 528.7 750.3C528 781 530.7 815.9 549.5 841.2C563.7 860.4 587 870.7 611.1 874.1C623.5 875.8 636 875.8 647.8 874.6C660.8 873.3 673.7 870.8 686.3 867.6C708.8 862 730.5 854.5 752.1 848.5C777.6 841.4 802.8 836.4 828.1 834.7C874.7 831.6 923.9 840 964.1 869.8C981.4 882.7 996.3 899.2 1008.3 917.9C1012.9 925.1 1017.1 932.5 1020.9 940.2C1061.8 1023.2 1051.1 1130.2 994.1 1202.5" stroke="#2C293A" stroke-miterlimit="10"/>
<path d="M-75.2 -204.9C-6.79995 -207.9 61.4 -201 125 -179.3C186.5 -158 245.7 -120.6 287.4 -69.2C318.6 -30.6 339.1 14 345.6 63.7C351.4 108.4 345.4 153.8 329.5 194.2C317.4 224.8 300.1 252.2 281.3 279.4C273.4 290.8 265.2 302.2 256.8 313.7C246 328.6 234.7 345.1 226.1 363.2C212.1 392.6 201.1 431.5 216.8 461C232.9 491.1 267.8 505.7 300.1 511.4C319.9 514.8 339.8 515.4 358.4 516.3C374.6 517.1 390.1 518.6 404.7 521.1C437.5 526.8 466.6 538.3 490 560.4C494.5 564.7 499 569.3 503 574.6C523.8 601.8 530.6 633.3 529.8 667.1C529.2 691.5 525.4 716.9 524.7 743.5C524.7 744.5 524.7 745.4 524.6 746.4C524.1 777.2 526.4 812.4 545.3 837.9C559.8 857.4 583.5 868 608 871.3C620.6 873 633.3 872.8 645.3 871.5C658.5 870 671.6 867.2 684.4 863.8C707.2 857.7 729.1 849.6 750.9 842.8C776.6 834.8 802 828.6 827.6 825.9C874.9 820.7 925.4 827.1 967 856.6C984.9 869.3 1000.2 886 1012.7 904.9C1017.5 912.2 1021.8 919.7 1025.7 927.5C1067.9 1011.8 1056.8 1121.2 998.1 1194.2" stroke="#2C293A" stroke-miterlimit="10"/>
<path d="M-86.9 -199.5C-17.8 -203.1 51.2 -197.4 115.9 -176.6C178.4 -156.3 239 -119.4 281.7 -67.9C313.5 -29.3 334.6 15.6 340.8 66.2C346.4 111.4 339.5 157.4 322.4 197.8C309.3 228.4 290.9 255.5 271 282.3C262.7 293.5 254.1 304.8 245.4 316.3C234.1 331.1 222.4 347.6 213.4 365.8C198.9 395 187.2 434.6 202.8 464.5C218.8 494.8 254.2 509.7 286.6 515.2C306.5 518.5 326.5 518.9 345.3 519.3C361.6 519.7 377.2 520.7 392 522.7C425.1 527.2 454.9 537.1 479.4 557.9C484.2 562 488.8 566.4 493.1 571.4C515.1 597.5 523.9 628.9 524.1 662.9C524.3 687.4 521 713.1 520.5 739.8C520.5 740.8 520.5 741.7 520.5 742.7C520.2 773.7 522.1 809.2 541.2 834.8C556 854.7 580.1 865.5 605.1 868.7C617.9 870.3 630.9 870 643.1 868.5C656.6 866.9 669.8 863.8 682.8 860.1C705.9 853.4 728 844.8 750 837.1C775.9 828.2 801.5 820.9 827.5 817C875.4 809.8 927.3 814.2 970.2 843.4C988.7 856 1004.5 872.8 1017.3 892C1022.2 899.4 1026.7 907 1030.7 914.9C1074.2 1000.4 1062.7 1112.2 1002.3 1186.1" stroke="#2C293A" stroke-miterlimit="10"/>
<path d="M-98.6 -194.2C-28.8 -198.2 41 -193.8 106.8 -174C170.3 -154.7 232.4 -118.3 276.1 -66.7C308.6 -28.1 330.1 17.2 336.1 68.6C341.4 114.3 333.7 160.8 315.3 201.2C301.3 231.8 281.6 258.6 260.8 285.1C252 296.2 243 307.4 234 318.8C222.2 333.6 210.1 350 200.7 368.2C185.7 397.3 173.2 437.6 188.8 467.8C204.7 498.2 240.6 513.5 273 518.8C293 522 313.1 521.8 332 522.1C348.4 522.4 364.1 522.7 379 524.1C412.4 527.3 443 535.6 468.6 555.3C473.6 559.1 478.5 563.4 483 568.2C506.2 593.2 516.9 624.5 518.2 658.6C519.2 683.3 516.3 709.2 516 736C516 737 516 738 516 738.9C515.8 770 517.5 805.9 536.6 831.6C551.7 851.9 576.2 863 601.6 866C614.7 867.6 627.8 867.2 640.3 865.5C654 863.7 667.5 860.4 680.6 856.4C704 849.2 726.3 839.9 748.5 831.5C774.7 821.7 800.5 813.3 826.7 808.3C875.2 799 928.5 801.4 972.8 830.3C991.9 842.8 1008.2 859.7 1021.4 879.1C1026.5 886.5 1031.1 894.3 1035.2 902.3C1080 989.1 1068.1 1103.3 1006 1177.9" stroke="#2C293A" stroke-miterlimit="10"/>
<path d="M-110.3 -188.8C-39.7001 -193.3 30.8999 -190.1 97.7 -171.3C162.1 -152.9 225.8 -117 270.4 -65.4C303.6 -26.9 325.6 18.9 331.3 71.1C336.4 117.4 327.8 164.4 308.2 204.7C293.2 235.3 272.4 261.7 250.6 287.9C241.4 298.9 232 310 222.6 321.2C210.3 336 197.7 352.3 188 370.5C172.5 399.5 159.2 440.5 174.8 471.1C190.6 501.7 226.9 517.3 259.5 522.4C279.6 525.5 299.8 525.3 318.9 525C335.3 524.7 351.2 524.7 366.3 525.6C400.1 527.6 431.3 534.3 458 552.7C463.2 556.3 468.4 560.3 473.1 565C497.5 589 510.1 620.2 512.5 654.4C514.3 679.2 511.9 705.3 511.8 732.3C511.8 733.3 511.8 734.3 511.8 735.3C511.8 766.6 513.1 802.7 532.3 828.6C547.7 849.2 572.6 860.6 598.5 863.5C611.8 865 625.1 864.5 637.9 862.6C651.8 860.6 665.5 857 678.7 852.7C702.4 845 725 835.1 747.3 825.9C773.7 815.1 799.7 805.7 826.3 799.6C875.4 788.3 930.1 788.7 975.8 817.2C995.4 829.5 1012.2 846.6 1025.8 866.2C1031 873.7 1035.7 881.6 1040 889.7C1086.1 977.8 1073.8 1094.3 1010 1169.7" stroke="#2C293A" stroke-miterlimit="10"/>
<path d="M-122 -183.5C-50.7 -188.5 20.7 -186.5 88.7 -168.6C154.1 -151.2 219.2 -115.8 264.9 -64.2C298.7 -25.7 321.2 20.4 326.7 73.5C331.5 120.3 322.1 167.8 301.2 208.2C285.2 238.8 263.3 264.9 240.4 290.8C230.8 301.6 221 312.6 211.2 323.8C198.3 338.5 185.4 354.8 175.3 373C159.3 401.8 145.3 443.5 160.9 474.4C176.6 505.1 213.4 521.1 246 526C266.2 529 286.6 528.6 305.8 527.8C322.3 527.2 338.3 526.7 353.6 527C387.7 527.7 419.6 532.8 447.5 550C453 553.4 458.4 557.2 463.4 561.7C489 584.6 503.5 615.7 507.1 650.1C509.7 675 507.8 701.4 507.8 728.5C507.8 729.5 507.8 730.5 507.8 731.5C508 762.9 508.9 799.4 528.3 825.4C544 846.4 569.3 858 595.6 860.9C609.1 862.4 622.7 861.8 635.6 859.7C649.7 857.5 663.6 853.7 677 849.1C701 840.9 723.8 830.3 746.4 820.4C773 808.7 799.2 798.1 826.1 790.9C875.9 777.5 931.9 775.9 978.9 804.2C999.1 816.4 1016.4 833.6 1030.4 853.5C1035.8 861.1 1040.6 869.1 1045 877.4C1092.5 966.7 1079.8 1085.7 1014.2 1161.8" stroke="#2C293A" stroke-miterlimit="10"/>
<path d="M-133.7 -178.1C-61.7 -183.7 10.5 -182.9 79.6 -165.9C146 -149.4 212.6 -114.6 259.2 -62.9C293.7 -24.4 316.7 22.1 321.9 76C326.4 123.3 316.2 171.4 294.1 211.7C277.2 242.3 254 268.1 230.2 293.6C220.1 304.3 209.9 315.2 199.8 326.3C186.4 341 173.1 357.2 162.6 375.4C146.2 404 131.3 446.4 147 477.7C162.6 508.6 199.9 524.9 232.6 529.6C253 532.4 273.4 531.8 292.8 530.6C309.4 529.6 325.5 528.7 340.9 528.5C375.3 528 408 531.4 436.9 547.4C442.6 550.5 448.2 554.1 453.5 558.4C480.3 580.2 496.7 611.2 501.4 645.7C504.8 670.8 503.4 697.4 503.6 724.6C503.6 725.6 503.6 726.6 503.6 727.6C504 759.2 504.5 796 524 822.1C540 843.5 565.8 855.3 592.5 858.1C606.2 859.5 620 858.8 633.2 856.6C647.5 854.2 661.6 850.2 675.2 845.3C699.5 836.6 722.5 825.4 745.3 814.7C772.1 802.1 798.5 790.4 825.8 782.1C876.2 766.7 933.6 763 982 791C1002.8 803 1020.6 820.4 1034.9 840.5C1040.4 848.2 1045.4 856.3 1049.9 864.7C1098.7 955.3 1085.6 1076.6 1018.4 1153.6" stroke="#2C293A" stroke-miterlimit="10"/>
<path d="M-145.4 -172.8C-72.6 -178.9 0.299973 -179.3 70.5 -163.3C137.9 -147.8 206 -113.5 253.6 -61.7C288.8 -23.3 312.4 23.6 317.2 78.5C321.6 126.4 310.4 174.9 287 215.2C269.1 245.8 244.8 271.2 220 296.5C209.5 307.1 198.9 317.8 188.4 328.9C174.5 343.6 160.8 359.7 149.9 378C133 406.5 117.3 449.6 133 481.2C148.5 512.2 186.3 528.9 219 533.4C239.5 536.1 260 535.2 279.6 533.7C296.3 532.4 312.5 531 328.1 530.2C362.9 528.5 396.2 530.3 426.3 545.1C432.2 548 438.1 551.4 443.6 555.5C471.5 576.3 490 607.2 495.7 641.8C499.9 667 499 693.9 499.4 721.2C499.4 722.2 499.4 723.2 499.4 724.2C499.9 755.9 500.1 793.1 519.8 819.3C536.1 841 562.3 853.1 589.4 855.8C603.4 857.2 617.3 856.3 630.8 853.9C645.4 851.3 659.6 847 673.4 841.9C698 832.7 721.2 820.8 744.2 809.4C771.2 795.9 797.8 783.1 825.4 773.7C876.4 756.2 935.3 750.6 985 778.2C1006.4 790.1 1024.6 807.6 1039.4 828C1045.1 835.8 1050.2 844 1054.8 852.5C1104.9 944.4 1091.4 1068.1 1022.5 1145.8" stroke="#2C293A" stroke-miterlimit="10"/>
<path d="M-157.1 -167.4C-83.6 -174 -9.79996 -175.6 61.4 -160.6C129.7 -146.1 199.3 -112.2 247.9 -60.4C283.8 -22 307.8 25.3 312.4 81C316.5 129.4 304.5 178.5 279.9 218.7C261 249.3 235.6 274.4 209.7 299.3C198.8 309.8 187.8 320.4 176.9 331.4C162.5 346 148.3 362 137.1 380.4C119.7 408.8 103.3 452.5 118.9 484.5C134.3 515.7 172.6 532.7 205.3 537C225.9 539.6 246.5 538.5 266.3 536.5C283 534.8 299.4 532.9 315.1 531.6C350.2 528.7 384.3 528.8 415.4 542.4C421.5 545.1 427.7 548.3 433.5 552.2C462.6 571.9 483 602.7 489.8 637.4C494.8 662.8 494.4 689.8 494.9 717.3C494.9 718.3 494.9 719.3 495 720.3C495.7 752.2 495.5 789.6 515.3 816.1C531.9 838.2 558.5 850.5 586.1 853.1C600.3 854.5 614.5 853.5 628.1 850.9C642.9 848.2 657.4 843.6 671.3 838.1C696.2 828.4 719.6 815.9 742.8 803.7C770.1 789.3 796.9 775.4 824.8 764.8C876.5 745.3 936.7 737.6 987.8 765C1009.8 776.8 1028.5 794.4 1043.6 815C1049.4 822.9 1054.7 831.2 1059.4 839.8C1110.8 933 1096.9 1059 1026.3 1137.5" stroke="#2C293A" stroke-miterlimit="10"/>
<path d="M-168.8 -162.1C-94.6001 -169.2 -20 -172.1 52.3 -158C121.6 -144.4 192.7 -111.1 242.2 -59.2C278.7 -20.8 303.3 26.8 307.5 83.4C311.4 132.3 298.5 182 272.6 222.2C252.8 252.8 226.2 277.6 199.3 302.2C188 312.5 176.5 323 165.3 334C150.3 348.6 135.8 364.5 124.2 382.9C106.3 411.1 89.1 455.6 104.8 487.9C120.1 519.2 158.9 536.6 191.7 540.7C212.4 543.2 233.1 541.8 253.1 539.4C269.9 537.4 286.4 535 302.3 533.1C337.7 528.9 372.5 527.4 404.8 539.8C411.2 542.2 417.5 545.2 423.6 549C453.9 567.7 476.2 598.3 484.1 633.2C489.9 658.7 490 686 490.7 713.6C490.7 714.6 490.8 715.6 490.8 716.6C491.7 748.6 491.1 786.4 511.1 813C528 835.5 555 848 583 850.5C597.4 851.8 611.8 850.7 625.7 847.9C640.7 845 655.4 840.2 669.5 834.4C694.7 824.2 718.3 811.1 741.7 798.1C769.2 782.8 796.2 767.7 824.5 756.1C876.8 734.5 938.4 724.9 990.8 751.9C1013.3 763.5 1032.5 781.3 1048.1 802.2C1054 810.2 1059.5 818.6 1064.3 827.3C1117 921.7 1102.7 1050.2 1030.4 1129.4" stroke="#2C293A" stroke-miterlimit="10"/>
<path d="M-180.5 -156.8C-105.6 -164.4 -30.2 -168.5 43.3 -155.4C113.6 -142.8 186.2 -110 236.7 -58.1C273.9 -19.7 298.9 28.3 302.9 85.7C306.5 135.2 292.8 185.3 265.7 225.5C244.9 256.1 217.1 280.5 189.3 304.8C177.5 315 165.7 325.4 154.1 336.2C138.6 350.7 123.7 366.7 111.7 385C93.4 413.1 75.4 458.2 91 490.9C106.2 522.4 145.4 540.1 178.3 544C199.1 546.4 219.9 544.8 240.1 542C257 539.7 273.6 536.8 289.7 534.3C325.5 528.9 360.9 525.7 394.3 536.9C400.9 539.1 407.5 541.9 413.8 545.5C445.3 563.1 469.5 593.6 478.6 628.7C485.2 654.4 485.8 681.9 486.7 709.7C486.7 710.7 486.8 711.7 486.8 712.8C487.9 745 486.9 783.1 507 809.8C524.2 832.6 551.6 845.4 580.1 847.8C594.7 849.1 609.3 847.8 623.5 844.9C638.7 841.8 653.6 836.7 667.9 830.7C693.4 820 717.2 806.2 740.8 792.4C768.5 776.2 795.7 760 824.3 747.2C877.2 723.6 940.2 711.9 994 738.6C1017.1 750.1 1036.8 768 1052.7 789.1C1058.8 797.2 1064.3 805.7 1069.3 814.5C1123.3 910.2 1108.6 1041 1034.6 1121.1" stroke="#2C293A" stroke-miterlimit="10"/>
<path d="M-192.2 -151.4C-116.5 -159.5 -40.3001 -164.8 34.1999 -152.7C105.5 -141 179.5 -108.8 231 -56.8C268.9 -18.5 294.4 30 298.1 88.2C301.4 138.2 286.9 188.9 258.5 229C236.7 259.6 207.8 283.7 178.9 307.6C166.7 317.7 154.4 328 142.5 338.7C126.5 353.2 111.2 369.1 98.7999 387.4C79.9999 415.4 61.1999 461.2 76.8999 494.2C91.9999 525.8 131.7 543.9 164.7 547.6C185.7 549.9 206.5 548 226.9 544.8C243.9 542.1 260.6 538.7 276.8 535.7C312.9 529 349.1 524.3 383.6 534.3C390.4 536.3 397.3 538.9 403.8 542.2C436.4 558.8 462.7 589.1 472.8 624.3C480.3 650.1 481.2 677.9 482.3 705.8C482.3 706.8 482.4 707.9 482.4 708.9C483.7 741.2 482.3 779.6 502.6 806.5C520.1 829.7 547.9 842.7 576.8 845C591.7 846.2 606.5 844.8 620.8 841.7C636.2 838.4 651.3 833.1 665.8 826.8C691.6 815.5 715.7 801.2 739.4 786.6C767.3 769.5 794.7 752.2 823.7 738.3C877.2 712.6 941.6 699 996.8 725.3C1020.5 736.6 1040.7 754.7 1057 776.1C1063.2 784.3 1068.9 792.9 1074 801.8C1129.3 898.8 1114.2 1032 1038.5 1112.8" stroke="#2C293A" stroke-miterlimit="10"/>
<path d="M-203.9 -146.1C-127.5 -154.7 -50.5 -161.2 25.1 -150.1C97.4 -139.4 172.9 -107.6 225.4 -55.6C263.9 -17.3 289.9 31.5 293.4 90.6C296.5 141.1 281.2 192.3 251.5 232.4C228.8 263 198.7 286.7 168.8 310.4C156.2 320.4 143.5 330.5 131.2 341.2C114.7 355.7 98.9 371.5 86.2 389.8C66.9 417.6 47.3 464.1 63 497.5C78 529.3 118.2 547.7 151.2 551.2C172.3 553.4 193.3 551.2 213.8 547.6C230.9 544.6 247.6 540.7 264.1 537.1C300.6 529.2 337.4 522.8 373 531.6C380.1 533.3 387.1 535.8 394 538.9C427.8 554.5 456.1 584.7 467.2 620C475.5 645.9 476.9 673.9 478.2 702C478.2 703 478.3 704.1 478.3 705.1C479.7 737.6 478.1 776.3 498.4 803.3C516.2 826.9 544.4 840.1 573.8 842.3C588.9 843.5 603.9 842 618.5 838.7C634.2 835.2 649.4 829.6 664 823.1C690.1 811.3 714.4 796.3 738.3 781C766.4 763 794 744.6 823.3 729.6C877.5 701.9 943.2 686.2 999.8 712.3C1024.1 723.5 1044.7 741.7 1061.4 763.3C1067.8 771.6 1073.6 780.3 1078.8 789.3C1135.5 887.5 1119.9 1023.1 1042.5 1104.7" stroke="#2C293A" stroke-miterlimit="10"/>
<path d="M-215.6 -140.7C-138.5 -149.8 -60.7 -157.6 16 -147.4C89.2 -137.7 166.2 -106.4 219.7 -54.3C258.9 -16 285.4 33.2 288.6 93.1C291.4 144.2 275.3 195.9 244.3 236C220.6 266.6 189.3 290 158.5 313.3C145.5 323.1 132.3 333.1 119.8 343.8C102.7 358.2 86.6 374 73.5 392.4C53.8 420.1 33.4 467.3 49.1 501C64 532.9 104.7 551.7 137.8 554.9C159 557 180.1 554.6 200.7 550.6C217.8 547.3 234.7 542.9 251.3 538.7C288.1 529.5 325.7 521.4 362.4 529.1C369.7 530.6 377 532.8 384.1 535.8C419.1 550.4 449.3 580.4 461.5 615.8C470.6 641.9 472.5 670.1 473.9 698.3C474 699.3 474 700.4 474.1 701.4C475.7 734 473.7 773.1 494.2 800.2C512.3 824.1 541 837.6 570.7 839.7C586 840.8 601.3 839.2 616.1 835.8C632 832.1 647.5 826.3 662.2 819.4C688.6 807.1 713.1 791.5 737.2 775.4C765.5 756.5 793.4 736.9 823 720.8C877.8 691 944.9 673.3 1002.8 699.1C1027.7 710.2 1048.8 728.5 1065.9 750.4C1072.4 758.8 1078.4 767.6 1083.7 776.7C1141.7 876.2 1125.7 1014.2 1046.6 1096.5" stroke="#2C293A" stroke-miterlimit="10"/>
<path d="M-227.3 -135.4C-149.5 -145 -70.9 -154 6.89996 -144.8C81.1 -136 159.6 -105.3 214 -53.1C253.9 -14.9 280.8 34.8 283.8 95.6C286.4 147.2 269.4 199.4 237.2 239.5C212.6 270.1 180.1 293.2 148.2 316.2C134.7 325.9 121.2 335.8 108.3 346.4C90.7 360.7 74.2 376.5 60.7 394.9C40.5 422.5 19.2999 470.3 34.9999 504.4C49.7999 536.5 90.9999 555.6 124.1 558.6C145.4 560.6 166.6 558 187.4 553.5C204.6 549.8 221.6 544.9 238.4 540.2C275.5 529.8 313.8 520.1 351.6 526.5C359.1 527.8 366.6 529.8 374 532.6C410.2 546.2 442.3 576 455.7 611.6C465.6 637.8 468 666.3 469.6 694.6C469.7 695.6 469.7 696.7 469.8 697.7C471.6 730.5 469.2 769.9 489.8 797.1C508.2 821.4 537.3 835.1 567.5 837.2C583 838.3 598.5 836.5 613.6 832.9C629.7 829 645.4 823 660.3 815.8C687 803 711.7 786.8 736 769.9C764.6 750.1 792.6 729.4 822.5 712.2C877.9 680.3 946.4 660.7 1005.7 686.1C1031.1 697 1052.8 715.5 1070.2 737.6C1076.9 746 1083 755 1088.4 764.3C1147.7 865.1 1131.3 1005.4 1050.5 1088.6" stroke="#2C293A" stroke-miterlimit="10"/>
<path d="M-239 -130C-160.4 -140.2 -81 -150.3 -2.09999 -142.1C128.1 -128.6 272.7 -47.9 279.2 98C281.5 150.1 263.7 202.9 230.2 242.9C204.6 273.5 171 296.2 138.1 318.9C105.2 341.6 72.1 365.2 48.1 397.1C27.4 424.5 5.39998 473.1 21.1 507.5C35.8 539.7 77.5 559.2 110.7 562C149.8 565.4 188.3 553.1 225.8 541.5C263.3 529.9 302.2 518.5 341.2 523.7C387 529.9 432.8 564.1 450.2 607.1C461.3 634.4 464 664.3 465.8 693.7C467.8 726.6 465 766.3 485.8 793.7C504.5 818.4 534 832.3 564.6 834.3C597.1 836.4 629.4 826.3 658.6 811.9C717.3 783 766.2 737.2 822.3 703.2C878.4 669.3 948.2 647.6 1008.9 672.8C1044.9 687.7 1073.4 717.7 1093.5 751.5C1154.1 853.5 1137.3 996.3 1054.8 1080.2" stroke="#2C293A" stroke-miterlimit="10"/>
</g>
<path d="M1138 560C1139.1 560 1140 559.105 1140 558C1140 556.895 1139.1 556 1138 556C1136.9 556 1136 556.895 1136 558C1136 559.105 1136.9 560 1138 560Z" fill="#929BFF"/>
<path d="M1115 560C1116.1 560 1117 559.105 1117 558C1117 556.895 1116.1 556 1115 556C1113.9 556 1113 556.895 1113 558C1113 559.105 1113.9 560 1115 560Z" fill="#929BFF"/>
<path d="M1092 560C1093.1 560 1094 559.105 1094 558C1094 556.895 1093.1 556 1092 556C1090.9 556 1090 556.895 1090 558C1090 559.105 1090.9 560 1092 560Z" fill="#929BFF"/>
<path d="M1069 560C1070.1 560 1071 559.105 1071 558C1071 556.895 1070.1 556 1069 556C1067.9 556 1067 556.895 1067 558C1067 559.105 1067.9 560 1069 560Z" fill="#929BFF"/>
<path d="M1046 560C1047.1 560 1048 559.105 1048 558C1048 556.895 1047.1 556 1046 556C1044.9 556 1044 556.895 1044 558C1044 559.105 1044.9 560 1046 560Z" fill="#929BFF"/>
<path d="M1023 560C1024.1 560 1025 559.105 1025 558C1025 556.895 1024.1 556 1023 556C1021.9 556 1021 556.895 1021 558C1021 559.105 1021.9 560 1023 560Z" fill="#929BFF"/>
<path d="M1000 560C1001.1 560 1002 559.105 1002 558C1002 556.895 1001.1 556 1000 556C998.895 556 998 556.895 998 558C998 559.105 998.895 560 1000 560Z" fill="#929BFF"/>
<path d="M977 560C978.105 560 979 559.105 979 558C979 556.895 978.105 556 977 556C975.895 556 975 556.895 975 558C975 559.105 975.895 560 977 560Z" fill="#929BFF"/>
<path d="M954 560C955.105 560 956 559.105 956 558C956 556.895 955.105 556 954 556C952.895 556 952 556.895 952 558C952 559.105 952.895 560 954 560Z" fill="#929BFF"/>
<path d="M931 560C932.105 560 933 559.105 933 558C933 556.895 932.105 556 931 556C929.895 556 929 556.895 929 558C929 559.105 929.895 560 931 560Z" fill="#929BFF"/>
<path d="M908 560C909.105 560 910 559.105 910 558C910 556.895 909.105 556 908 556C906.895 556 906 556.895 906 558C906 559.105 906.895 560 908 560Z" fill="#929BFF"/>
<path d="M885 560C886.105 560 887 559.105 887 558C887 556.895 886.105 556 885 556C883.895 556 883 556.895 883 558C883 559.105 883.895 560 885 560Z" fill="#929BFF"/>
<path d="M862 560C863.105 560 864 559.105 864 558C864 556.895 863.105 556 862 556C860.895 556 860 556.895 860 558C860 559.105 860.895 560 862 560Z" fill="#929BFF"/>
<path d="M839 560C840.105 560 841 559.105 841 558C841 556.895 840.105 556 839 556C837.895 556 837 556.895 837 558C837 559.105 837.895 560 839 560Z" fill="#929BFF"/>
<path d="M816 560C817.105 560 818 559.105 818 558C818 556.895 817.105 556 816 556C814.895 556 814 556.895 814 558C814 559.105 814.895 560 816 560Z" fill="#929BFF"/>
<path d="M793 560C794.105 560 795 559.105 795 558C795 556.895 794.105 556 793 556C791.895 556 791 556.895 791 558C791 559.105 791.895 560 793 560Z" fill="#929BFF"/>
<path d="M1138 535C1139.1 535 1140 534.105 1140 533C1140 531.895 1139.1 531 1138 531C1136.9 531 1136 531.895 1136 533C1136 534.105 1136.9 535 1138 535Z" fill="#929BFF"/>
<path d="M1115 535C1116.1 535 1117 534.105 1117 533C1117 531.895 1116.1 531 1115 531C1113.9 531 1113 531.895 1113 533C1113 534.105 1113.9 535 1115 535Z" fill="#929BFF"/>
<path d="M1092 535C1093.1 535 1094 534.105 1094 533C1094 531.895 1093.1 531 1092 531C1090.9 531 1090 531.895 1090 533C1090 534.105 1090.9 535 1092 535Z" fill="#929BFF"/>
<path d="M1069 535C1070.1 535 1071 534.105 1071 533C1071 531.895 1070.1 531 1069 531C1067.9 531 1067 531.895 1067 533C1067 534.105 1067.9 535 1069 535Z" fill="#929BFF"/>
<path d="M1046 535C1047.1 535 1048 534.105 1048 533C1048 531.895 1047.1 531 1046 531C1044.9 531 1044 531.895 1044 533C1044 534.105 1044.9 535 1046 535Z" fill="#929BFF"/>
<path d="M1023 535C1024.1 535 1025 534.105 1025 533C1025 531.895 1024.1 531 1023 531C1021.9 531 1021 531.895 1021 533C1021 534.105 1021.9 535 1023 535Z" fill="#929BFF"/>
<path d="M1000 535C1001.1 535 1002 534.105 1002 533C1002 531.895 1001.1 531 1000 531C998.895 531 998 531.895 998 533C998 534.105 998.895 535 1000 535Z" fill="#929BFF"/>
<path d="M977 535C978.105 535 979 534.105 979 533C979 531.895 978.105 531 977 531C975.895 531 975 531.895 975 533C975 534.105 975.895 535 977 535Z" fill="#929BFF"/>
<path d="M954 535C955.105 535 956 534.105 956 533C956 531.895 955.105 531 954 531C952.895 531 952 531.895 952 533C952 534.105 952.895 535 954 535Z" fill="#929BFF"/>
<path d="M931 535C932.105 535 933 534.105 933 533C933 531.895 932.105 531 931 531C929.895 531 929 531.895 929 533C929 534.105 929.895 535 931 535Z" fill="#929BFF"/>
<path d="M908 535C909.105 535 910 534.105 910 533C910 531.895 909.105 531 908 531C906.895 531 906 531.895 906 533C906 534.105 906.895 535 908 535Z" fill="#929BFF"/>
<path d="M885 535C886.105 535 887 534.105 887 533C887 531.895 886.105 531 885 531C883.895 531 883 531.895 883 533C883 534.105 883.895 535 885 535Z" fill="#929BFF"/>
<path d="M862 535C863.105 535 864 534.105 864 533C864 531.895 863.105 531 862 531C860.895 531 860 531.895 860 533C860 534.105 860.895 535 862 535Z" fill="#929BFF"/>
<path d="M839 535C840.105 535 841 534.105 841 533C841 531.895 840.105 531 839 531C837.895 531 837 531.895 837 533C837 534.105 837.895 535 839 535Z" fill="#929BFF"/>
<path d="M816 535C817.105 535 818 534.105 818 533C818 531.895 817.105 531 816 531C814.895 531 814 531.895 814 533C814 534.105 814.895 535 816 535Z" fill="#929BFF"/>
<path d="M793 535C794.105 535 795 534.105 795 533C795 531.895 794.105 531 793 531C791.895 531 791 531.895 791 533C791 534.105 791.895 535 793 535Z" fill="#929BFF"/>
<path d="M1138 510C1139.1 510 1140 509.105 1140 508C1140 506.895 1139.1 506 1138 506C1136.9 506 1136 506.895 1136 508C1136 509.105 1136.9 510 1138 510Z" fill="#929BFF"/>
<path d="M1115 510C1116.1 510 1117 509.105 1117 508C1117 506.895 1116.1 506 1115 506C1113.9 506 1113 506.895 1113 508C1113 509.105 1113.9 510 1115 510Z" fill="#929BFF"/>
<path d="M1092 510C1093.1 510 1094 509.105 1094 508C1094 506.895 1093.1 506 1092 506C1090.9 506 1090 506.895 1090 508C1090 509.105 1090.9 510 1092 510Z" fill="#929BFF"/>
<path d="M1069 510C1070.1 510 1071 509.105 1071 508C1071 506.895 1070.1 506 1069 506C1067.9 506 1067 506.895 1067 508C1067 509.105 1067.9 510 1069 510Z" fill="#929BFF"/>
<path d="M1046 510C1047.1 510 1048 509.105 1048 508C1048 506.895 1047.1 506 1046 506C1044.9 506 1044 506.895 1044 508C1044 509.105 1044.9 510 1046 510Z" fill="#929BFF"/>
<path d="M1023 510C1024.1 510 1025 509.105 1025 508C1025 506.895 1024.1 506 1023 506C1021.9 506 1021 506.895 1021 508C1021 509.105 1021.9 510 1023 510Z" fill="#929BFF"/>
<path d="M1000 510C1001.1 510 1002 509.105 1002 508C1002 506.895 1001.1 506 1000 506C998.895 506 998 506.895 998 508C998 509.105 998.895 510 1000 510Z" fill="#929BFF"/>
<path d="M977 510C978.105 510 979 509.105 979 508C979 506.895 978.105 506 977 506C975.895 506 975 506.895 975 508C975 509.105 975.895 510 977 510Z" fill="#929BFF"/>
<path d="M954 510C955.105 510 956 509.105 956 508C956 506.895 955.105 506 954 506C952.895 506 952 506.895 952 508C952 509.105 952.895 510 954 510Z" fill="#929BFF"/>
<path d="M931 510C932.105 510 933 509.105 933 508C933 506.895 932.105 506 931 506C929.895 506 929 506.895 929 508C929 509.105 929.895 510 931 510Z" fill="#929BFF"/>
<path d="M908 510C909.105 510 910 509.105 910 508C910 506.895 909.105 506 908 506C906.895 506 906 506.895 906 508C906 509.105 906.895 510 908 510Z" fill="#929BFF"/>
<path d="M885 510C886.105 510 887 509.105 887 508C887 506.895 886.105 506 885 506C883.895 506 883 506.895 883 508C883 509.105 883.895 510 885 510Z" fill="#929BFF"/>
<path d="M862 510C863.105 510 864 509.105 864 508C864 506.895 863.105 506 862 506C860.895 506 860 506.895 860 508C860 509.105 860.895 510 862 510Z" fill="#929BFF"/>
<path d="M839 510C840.105 510 841 509.105 841 508C841 506.895 840.105 506 839 506C837.895 506 837 506.895 837 508C837 509.105 837.895 510 839 510Z" fill="#929BFF"/>
<path d="M816 510C817.105 510 818 509.105 818 508C818 506.895 817.105 506 816 506C814.895 506 814 506.895 814 508C814 509.105 814.895 510 816 510Z" fill="#929BFF"/>
<path d="M793 510C794.105 510 795 509.105 795 508C795 506.895 794.105 506 793 506C791.895 506 791 506.895 791 508C791 509.105 791.895 510 793 510Z" fill="#929BFF"/>
<path d="M1138 485C1139.1 485 1140 484.105 1140 483C1140 481.895 1139.1 481 1138 481C1136.9 481 1136 481.895 1136 483C1136 484.105 1136.9 485 1138 485Z" fill="#929BFF"/>
<path d="M1115 485C1116.1 485 1117 484.105 1117 483C1117 481.895 1116.1 481 1115 481C1113.9 481 1113 481.895 1113 483C1113 484.105 1113.9 485 1115 485Z" fill="#929BFF"/>
<path d="M1092 485C1093.1 485 1094 484.105 1094 483C1094 481.895 1093.1 481 1092 481C1090.9 481 1090 481.895 1090 483C1090 484.105 1090.9 485 1092 485Z" fill="#929BFF"/>
<path d="M1069 485C1070.1 485 1071 484.105 1071 483C1071 481.895 1070.1 481 1069 481C1067.9 481 1067 481.895 1067 483C1067 484.105 1067.9 485 1069 485Z" fill="#929BFF"/>
<path d="M1046 485C1047.1 485 1048 484.105 1048 483C1048 481.895 1047.1 481 1046 481C1044.9 481 1044 481.895 1044 483C1044 484.105 1044.9 485 1046 485Z" fill="#929BFF"/>
<path d="M1023 485C1024.1 485 1025 484.105 1025 483C1025 481.895 1024.1 481 1023 481C1021.9 481 1021 481.895 1021 483C1021 484.105 1021.9 485 1023 485Z" fill="#929BFF"/>
<path d="M1000 485C1001.1 485 1002 484.105 1002 483C1002 481.895 1001.1 481 1000 481C998.895 481 998 481.895 998 483C998 484.105 998.895 485 1000 485Z" fill="#929BFF"/>
<path d="M977 485C978.105 485 979 484.105 979 483C979 481.895 978.105 481 977 481C975.895 481 975 481.895 975 483C975 484.105 975.895 485 977 485Z" fill="#929BFF"/>
<path d="M954 485C955.105 485 956 484.105 956 483C956 481.895 955.105 481 954 481C952.895 481 952 481.895 952 483C952 484.105 952.895 485 954 485Z" fill="#929BFF"/>
<path d="M931 485C932.105 485 933 484.105 933 483C933 481.895 932.105 481 931 481C929.895 481 929 481.895 929 483C929 484.105 929.895 485 931 485Z" fill="#929BFF"/>
<path d="M908 485C909.105 485 910 484.105 910 483C910 481.895 909.105 481 908 481C906.895 481 906 481.895 906 483C906 484.105 906.895 485 908 485Z" fill="#929BFF"/>
<path d="M885 485C886.105 485 887 484.105 887 483C887 481.895 886.105 481 885 481C883.895 481 883 481.895 883 483C883 484.105 883.895 485 885 485Z" fill="#929BFF"/>
<path d="M862 485C863.105 485 864 484.105 864 483C864 481.895 863.105 481 862 481C860.895 481 860 481.895 860 483C860 484.105 860.895 485 862 485Z" fill="#929BFF"/>
<path d="M839 485C840.105 485 841 484.105 841 483C841 481.895 840.105 481 839 481C837.895 481 837 481.895 837 483C837 484.105 837.895 485 839 485Z" fill="#929BFF"/>
<path d="M816 485C817.105 485 818 484.105 818 483C818 481.895 817.105 481 816 481C814.895 481 814 481.895 814 483C814 484.105 814.895 485 816 485Z" fill="#929BFF"/>
<path d="M793 485C794.105 485 795 484.105 795 483C795 481.895 794.105 481 793 481C791.895 481 791 481.895 791 483C791 484.105 791.895 485 793 485Z" fill="#929BFF"/>
<path d="M1138 460C1139.1 460 1140 459.105 1140 458C1140 456.895 1139.1 456 1138 456C1136.9 456 1136 456.895 1136 458C1136 459.105 1136.9 460 1138 460Z" fill="#929BFF"/>
<path d="M1115 460C1116.1 460 1117 459.105 1117 458C1117 456.895 1116.1 456 1115 456C1113.9 456 1113 456.895 1113 458C1113 459.105 1113.9 460 1115 460Z" fill="#929BFF"/>
<path d="M1092 460C1093.1 460 1094 459.105 1094 458C1094 456.895 1093.1 456 1092 456C1090.9 456 1090 456.895 1090 458C1090 459.105 1090.9 460 1092 460Z" fill="#929BFF"/>
<path d="M1069 460C1070.1 460 1071 459.105 1071 458C1071 456.895 1070.1 456 1069 456C1067.9 456 1067 456.895 1067 458C1067 459.105 1067.9 460 1069 460Z" fill="#929BFF"/>
<path d="M1046 460C1047.1 460 1048 459.105 1048 458C1048 456.895 1047.1 456 1046 456C1044.9 456 1044 456.895 1044 458C1044 459.105 1044.9 460 1046 460Z" fill="#929BFF"/>
<path d="M1023 460C1024.1 460 1025 459.105 1025 458C1025 456.895 1024.1 456 1023 456C1021.9 456 1021 456.895 1021 458C1021 459.105 1021.9 460 1023 460Z" fill="#929BFF"/>
<path d="M1000 460C1001.1 460 1002 459.105 1002 458C1002 456.895 1001.1 456 1000 456C998.895 456 998 456.895 998 458C998 459.105 998.895 460 1000 460Z" fill="#929BFF"/>
<path d="M977 460C978.105 460 979 459.105 979 458C979 456.895 978.105 456 977 456C975.895 456 975 456.895 975 458C975 459.105 975.895 460 977 460Z" fill="#929BFF"/>
<path d="M954 460C955.105 460 956 459.105 956 458C956 456.895 955.105 456 954 456C952.895 456 952 456.895 952 458C952 459.105 952.895 460 954 460Z" fill="#929BFF"/>
<path d="M931 460C932.105 460 933 459.105 933 458C933 456.895 932.105 456 931 456C929.895 456 929 456.895 929 458C929 459.105 929.895 460 931 460Z" fill="#929BFF"/>
<path d="M908 460C909.105 460 910 459.105 910 458C910 456.895 909.105 456 908 456C906.895 456 906 456.895 906 458C906 459.105 906.895 460 908 460Z" fill="#929BFF"/>
<path d="M885 460C886.105 460 887 459.105 887 458C887 456.895 886.105 456 885 456C883.895 456 883 456.895 883 458C883 459.105 883.895 460 885 460Z" fill="#929BFF"/>
<path d="M862 460C863.105 460 864 459.105 864 458C864 456.895 863.105 456 862 456C860.895 456 860 456.895 860 458C860 459.105 860.895 460 862 460Z" fill="#929BFF"/>
<path d="M839 460C840.105 460 841 459.105 841 458C841 456.895 840.105 456 839 456C837.895 456 837 456.895 837 458C837 459.105 837.895 460 839 460Z" fill="#929BFF"/>
<path d="M816 460C817.105 460 818 459.105 818 458C818 456.895 817.105 456 816 456C814.895 456 814 456.895 814 458C814 459.105 814.895 460 816 460Z" fill="#929BFF"/>
<path d="M793 460C794.105 460 795 459.105 795 458C795 456.895 794.105 456 793 456C791.895 456 791 456.895 791 458C791 459.105 791.895 460 793 460Z" fill="#929BFF"/>
</svg>
