<svg xmlns="http://www.w3.org/2000/svg" xmlns:xlink="http://www.w3.org/1999/xlink" width="1080" zoomAndPan="magnify" viewBox="0 0 810 809.999993" height="1080" preserveAspectRatio="xMidYMid meet" version="1.0"><rect x="-81" width="972" fill="#000000" y="-80.999999" height="971.999992" fill-opacity="1"/><path fill="#ffffff" d="M 496.921875 155.898438 C 415.300781 155.898438 376.46875 183.792969 367.515625 252.433594 L 479.988281 252.433594 L 479.988281 361.878906 L 366.480469 361.878906 L 366.480469 750.023438 L 247.027344 750.023438 L 247.027344 361.90625 L 197.261719 361.90625 L 197.261719 252.460938 L 248.003906 252.460938 C 259.027344 118.105469 344.640625 46.453125 496.921875 46.453125 Z M 496.921875 155.898438 " fill-opacity="1" fill-rule="nonzero"/><path fill="#ffffff" d="M 616.28125 612.714844 C 660.109375 612.714844 689.953125 641.582031 689.953125 685.402344 C 689.953125 730.199219 660.109375 759.066406 616.28125 759.066406 C 572.515625 759.066406 542.667969 730.199219 542.667969 685.402344 C 542.636719 641.550781 572.484375 612.714844 616.28125 612.714844 Z M 616.28125 612.714844 " fill-opacity="1" fill-rule="nonzero"/></svg>